<?xml version="1.0" encoding="UTF-8"?>
<!DOCTYPE svg PUBLIC "-//W3C//DTD SVG 1.1//EN" "http://www.w3.org/Graphics/SVG/1.1/DTD/svg11.dtd">
<!-- Creator: CorelDRAW X6 -->
<svg xmlns="http://www.w3.org/2000/svg" xml:space="preserve" width="11in" height="11in" version="1.1" style="shape-rendering:geometricPrecision; text-rendering:geometricPrecision; image-rendering:optimizeQuality; fill-rule:evenodd; clip-rule:evenodd"
viewBox="0 0 11000 11000"
 xmlns:xlink="http://www.w3.org/1999/xlink">
 <defs>
  <style type="text/css">
   <![CDATA[
    .str0 {stroke:#A0C63A;stroke-width:30}
    .fil0 {fill:none}
   ]]>
  </style>
 </defs>
 <g id="Layer_x0020_1">
  <metadata id="CorelCorpID_0Corel-Layer"/>
  <path class="fil0 str0" d="M453 10213c0,0 265,-319 942,-413 0,0 1179,-312 1635,-360 0,0 90,-17 277,-23 0,0 814,-28 887,-1592 10,-219 -25,-153 -196,-331 -201,-209 -489,-563 -550,-935 0,0 -181,-792 -273,-1025 0,0 -33,-85 -125,-7 0,0 -165,-4 -400,-1417 -34,-202 175,-180 299,-102 125,79 147,-117 134,-202 0,0 -525,-2679 2225,-3004 0,0 2142,-292 2675,1825 0,0 92,458 -42,1250 0,0 2,201 239,99 0,0 178,-184 213,69 0,0 -10,562 -323,1328 -90,220 -157,-26 -208,138 0,0 -154,480 -179,672 0,0 -225,1192 -821,1404 0,0 -50,7 -45,95 -25,605 298,1808 1056,1770 355,-18 758,113 1096,209 277,68 515,98 788,144 194,33 528,125 788,383"/>
 </g>
</svg>
