<svg width="64" height="40" viewBox="0 0 64 40" fill="none" xmlns="http://www.w3.org/2000/svg">
<g clip-path="url(#clip0_12765_185009)">
<path d="M32 39.9998C49.6731 39.9998 64 36.9423 64 33.1706C64 29.3989 49.6731 26.3413 32 26.3413C14.3269 26.3413 0 29.3989 0 33.1706C0 36.9423 14.3269 39.9998 32 39.9998Z" fill="#F5F5F5"/>
<path fill-rule="evenodd" clip-rule="evenodd" d="M55 13.4244L44.854 2.2029C44.367 1.43803 43.656 0.975586 42.907 0.975586H21.093C20.344 0.975586 19.633 1.43802 19.146 2.20193L9 13.4253V22.439H55V13.4244Z" stroke="#B5B5B5" stroke-width="0.487805"/>
<path fill-rule="evenodd" clip-rule="evenodd" d="M41.613 16.5182C41.613 14.9523 42.607 13.6597 43.84 13.6587H55V31.3533C55 33.4245 53.68 35.1221 52.05 35.1221H11.95C10.32 35.1221 9 33.4236 9 31.3533V13.6587H20.16C21.393 13.6587 22.387 14.9494 22.387 16.5153V16.5367C22.387 18.1026 23.392 19.367 24.624 19.367H39.376C40.608 19.367 41.613 18.0909 41.613 16.525V16.5182V16.5182Z" fill="#F9F9F9" stroke="#B5B5B5" stroke-width="0.487805"/>
</g>
<defs>
<clipPath id="clip0_12765_185009">
<rect width="64" height="40" fill="white"/>
</clipPath>
</defs>
</svg>
