<svg width="32" height="32" viewBox="0 0 32 32" fill="none" xmlns="http://www.w3.org/2000/svg">
<rect x="0.5" y="0.5" width="31" height="31" rx="7.5" fill="white" stroke="#E9E9E9"/>
<path d="M16 15.9999C18.2091 15.9999 20 14.209 20 11.9999C20 9.79074 18.2091 7.99988 16 7.99988C13.7909 7.99988 12 9.79074 12 11.9999C12 14.209 13.7909 15.9999 16 15.9999Z" fill="#008047"/>
<path d="M15.9986 17.9999C11.9906 17.9999 8.72656 20.6879 8.72656 23.9999C8.72656 24.2239 8.90256 24.3999 9.12656 24.3999H22.8706C23.0946 24.3999 23.2706 24.2239 23.2706 23.9999C23.2706 20.6879 20.0066 17.9999 15.9986 17.9999Z" fill="#008047"/>
</svg>
