<svg width="22" height="19" viewBox="0 0 22 19" fill="none" xmlns="http://www.w3.org/2000/svg">
<path fill-rule="evenodd" clip-rule="evenodd" d="M9.2888 1.86002L0.8188 16C0.644168 16.3024 0.551767 16.6453 0.550789 16.9945C0.549811 17.3438 0.640291 17.6872 0.813227 17.9905C0.986162 18.2939 1.23553 18.5468 1.53651 18.7239C1.83749 18.901 2.1796 18.9962 2.5288 19H19.4688C19.818 18.9962 20.1601 18.901 20.4611 18.7239C20.7621 18.5468 21.0114 18.2939 21.1844 17.9905C21.3573 17.6872 21.4478 17.3438 21.4468 16.9945C21.4458 16.6453 21.3534 16.3024 21.1788 16L12.7088 1.86002C12.5305 1.56613 12.2795 1.32314 11.98 1.15451C11.6805 0.98587 11.3425 0.897278 10.9988 0.897278C10.6551 0.897278 10.3171 0.98587 10.0176 1.15451C9.71808 1.32314 9.46707 1.56613 9.2888 1.86002ZM10.9986 6.09998C11.4957 6.09998 11.8986 6.50292 11.8986 6.99998V11C11.8986 11.497 11.4957 11.9 10.9986 11.9C10.5016 11.9 10.0986 11.497 10.0986 11V6.99998C10.0986 6.50292 10.5016 6.09998 10.9986 6.09998ZM10.9986 14.1C10.5016 14.1 10.0986 14.5029 10.0986 15C10.0986 15.497 10.5016 15.9 10.9986 15.9H11.0086C11.5057 15.9 11.9086 15.497 11.9086 15C11.9086 14.5029 11.5057 14.1 11.0086 14.1H10.9986Z" fill="#F84932"/>
</svg>
