<svg width="49" height="48" viewBox="0 0 49 48" fill="none" xmlns="http://www.w3.org/2000/svg">
<path d="M21.08 7.71992L4.14001 35.9999C3.79075 36.6048 3.60594 37.2905 3.60399 37.989C3.60203 38.6874 3.78299 39.3742 4.12886 39.981C4.47474 40.5878 4.97346 41.0934 5.57543 41.4476C6.17739 41.8018 6.86161 41.9922 7.56001 41.9999H41.44C42.1384 41.9922 42.8226 41.8018 43.4246 41.4476C44.0266 41.0934 44.5253 40.5878 44.8712 39.981C45.217 39.3742 45.398 38.6874 45.396 37.989C45.3941 37.2905 45.2093 36.6048 44.86 35.9999L27.92 7.71992C27.5635 7.13213 27.0615 6.64616 26.4624 6.30889C25.8633 5.97162 25.1875 5.79443 24.5 5.79443C23.8125 5.79443 23.1367 5.97162 22.5376 6.30889C21.9386 6.64616 21.4366 7.13213 21.08 7.71992Z" fill="#FF9700"/>
<path fill-rule="evenodd" clip-rule="evenodd" d="M24.5 16.2C25.4941 16.2 26.3 17.0058 26.3 18V26C26.3 26.9941 25.4941 27.8 24.5 27.8C23.5059 27.8 22.7 26.9941 22.7 26V18C22.7 17.0058 23.5059 16.2 24.5 16.2Z" fill="white"/>
<path fill-rule="evenodd" clip-rule="evenodd" d="M22.7 34C22.7 33.0058 23.5059 32.2 24.5 32.2H24.52C25.5141 32.2 26.32 33.0058 26.32 34C26.32 34.9941 25.5141 35.8 24.52 35.8H24.5C23.5059 35.8 22.7 34.9941 22.7 34Z" fill="white"/>
</svg>
