<svg width="52" height="44" viewBox="0 0 52 44" fill="none" xmlns="http://www.w3.org/2000/svg">
<path d="M30.8334 37H13.1684C6.10244 37 4.33594 35.3333 4.33594 28.6667V15.3333C4.33594 8.66667 6.10244 7 13.1684 7H30.8334C37.8994 7 39.6659 8.66667 39.6659 15.3333V28.6667C39.6659 35.3333 37.8994 37 30.8334 37Z" stroke="#3B3B3B" stroke-width="2.5" stroke-linecap="round" stroke-linejoin="round"/>
<path d="M25.3359 18.3359H33.6693" stroke="#008047" stroke-width="2.5" stroke-linecap="round" stroke-linejoin="round"/>
<path d="M27 25H33.6667" stroke="#008047" stroke-width="2.5" stroke-linecap="round" stroke-linejoin="round"/>
<path d="M16.1651 20.8175C17.8312 20.8175 19.1818 19.4668 19.1818 17.8008C19.1818 16.1347 17.8312 14.7841 16.1651 14.7841C14.499 14.7841 13.1484 16.1347 13.1484 17.8008C13.1484 19.4668 14.499 20.8175 16.1651 20.8175Z" stroke="#008047" stroke-width="2.5" stroke-linecap="round" stroke-linejoin="round"/>
<path d="M21.9987 29.2166C21.7654 26.7999 19.8487 24.8999 17.432 24.6832C16.5987 24.5999 15.7487 24.5999 14.8987 24.6832C12.482 24.9166 10.5654 26.7999 10.332 29.2166" stroke="#008047" stroke-width="2.5" stroke-linecap="round" stroke-linejoin="round"/>
<rect x="33" y="27" width="14" height="11" fill="white"/>
<path d="M40 22C34.49 22 30 26.49 30 32C30 37.51 34.49 42 40 42C45.51 42 50 37.51 50 32C50 26.49 45.51 22 40 22ZM44.78 29.7L39.11 35.37C38.97 35.51 38.78 35.59 38.58 35.59C38.38 35.59 38.19 35.51 38.05 35.37L35.22 32.54C34.93 32.25 34.93 31.77 35.22 31.48C35.51 31.19 35.99 31.19 36.28 31.48L38.58 33.78L43.72 28.64C44.01 28.35 44.49 28.35 44.78 28.64C45.07 28.93 45.07 29.4 44.78 29.7Z" fill="#008047"/>
</svg>
