<svg width="10" height="10" viewBox="0 0 10 10" fill="none" xmlns="http://www.w3.org/2000/svg">
<path d="M9.22206 2.69945C9.21656 2.16039 8.99103 1.74234 8.63349 1.52781C8.60049 1.51131 8.56748 1.48931 8.52898 1.47281C8.55648 1.48931 8.80401 1.61582 8.92502 1.91836C8.98003 2.05587 9.02403 2.2869 8.94152 2.62244C8.94152 2.62244 8.91952 2.69945 8.90852 2.74345V2.74895C8.90302 2.75996 8.90302 2.77646 8.89752 2.79296C8.89752 2.79846 8.89752 2.79846 8.89202 2.80396C8.727 3.31552 8.42997 3.94809 8.03942 4.60267C7.65988 5.23524 7.25283 5.77431 6.88429 6.15935C6.88429 6.15935 6.88428 6.15935 6.87878 6.16485C6.71376 6.32987 6.59275 6.38488 6.51574 6.40138C6.42223 6.41788 6.36723 6.40138 6.36723 6.40138C6.27921 6.38488 6.1692 6.30787 6.06469 6.21986C5.59714 5.85682 5.00857 5.20224 4.4475 4.40465C3.5454 3.112 3.03934 1.89636 3.22636 1.52231C3.22636 1.52231 3.35288 1.19777 3.93044 1.09326C2.30225 1.31329 1.59267 1.80284 1.31214 2.08338L1.30114 2.09438C1.08111 2.3199 0.954597 2.62794 1.0151 3.08999C1.0151 3.08999 1.0206 3.1175 1.03161 3.1725C1.03711 3.20001 1.04261 3.23301 1.04811 3.26601C1.13612 3.70607 1.33964 4.26713 1.63117 4.8447C1.70818 4.99322 1.78519 5.13073 1.8622 5.26825C2.07123 5.64229 2.30775 6.01633 2.57729 6.38488C3.18786 7.22648 3.87544 7.92506 4.56302 8.44212C4.61802 8.48612 4.67303 8.53013 4.73353 8.57413C4.86555 8.67314 4.99757 8.75565 5.11858 8.82716C5.21759 8.88767 5.3276 8.93717 5.44312 8.96468C5.47062 8.97018 5.49812 8.98118 5.53113 8.98118C5.60814 8.99768 5.68514 9.00318 5.76765 8.99768C6.10869 8.99218 6.41123 8.83816 6.62025 8.59613C6.63125 8.58513 6.65326 8.56313 6.68076 8.53013C6.77977 8.41461 6.92279 8.23859 7.09331 7.98006C7.54436 7.34199 7.96791 6.5774 8.33645 5.7303C8.749 4.77869 9.02954 3.84358 9.18355 3.00748C9.21656 2.90297 9.22206 2.80396 9.22206 2.69945Z" fill="#1B1B1B"/>
<path d="M8.70864 1.80859C8.57112 1.56107 8.24659 1.39055 8.16408 1.35754C7.61402 1.12101 6.95394 1.08801 6.43688 1.04401C6.11784 1.0165 5.7823 1 5.44126 1C5.09472 1 4.71518 1.0055 4.40714 1.04401C4.37964 1.04951 3.71956 1.14852 3.48854 1.50606C3.36752 1.69308 3.46103 2.00662 3.52154 2.19364C3.74156 2.86472 4.20362 3.5688 4.21462 3.5688C4.42914 3.53579 4.68217 3.51929 4.9352 3.50279C5.14423 3.49179 5.37525 3.48079 5.63928 3.47529C6.46438 3.46429 7.19596 3.5413 7.69102 3.66781C7.78453 3.68981 7.87254 3.71732 7.94405 3.75032C8.03756 3.79983 8.10357 3.86583 8.14208 3.94284C8.14758 3.95384 9.06068 2.41917 8.70864 1.80859Z" fill="#1B1B1B"/>
</svg>
