<svg width="32" height="32" viewBox="0 0 32 32" fill="none" xmlns="http://www.w3.org/2000/svg">
<rect x="0.5" y="0.5" width="31" height="31" rx="7.5" fill="white" stroke="#E9E9E9"/>
<path d="M24.7953 12.4508C24.7953 13.0316 24.3201 13.5068 23.7393 13.5068H8.25131C7.67051 13.5068 7.19531 13.0316 7.19531 12.4508V12.442C7.19531 10.4268 8.82331 8.79883 10.8385 8.79883H21.1433C23.1585 8.79883 24.7953 10.4356 24.7953 12.4508Z" fill="#008047"/>
<path d="M7.19531 15.8831V20.2919C7.19531 22.3071 8.82331 23.9351 10.8385 23.9351H21.1433C23.1585 23.9351 24.7953 22.2983 24.7953 20.2831V15.8831C24.7953 15.3023 24.3201 14.8271 23.7393 14.8271H8.25131C7.67051 14.8271 7.19531 15.3023 7.19531 15.8831ZM12.4753 20.9871H10.7153C10.3545 20.9871 10.0553 20.6879 10.0553 20.3271C10.0553 19.9663 10.3545 19.6671 10.7153 19.6671H12.4753C12.8361 19.6671 13.1353 19.9663 13.1353 20.3271C13.1353 20.6879 12.8361 20.9871 12.4753 20.9871ZM18.1953 20.9871H14.6753C14.3145 20.9871 14.0153 20.6879 14.0153 20.3271C14.0153 19.9663 14.3145 19.6671 14.6753 19.6671H18.1953C18.5561 19.6671 18.8553 19.9663 18.8553 20.3271C18.8553 20.6879 18.5561 20.9871 18.1953 20.9871Z" fill="#008047"/>
</svg>
