<svg width="40" height="40" viewBox="0 0 40 40" fill="none" xmlns="http://www.w3.org/2000/svg">
<path d="M5.85938 7.10938H1.17188C0.524687 7.10938 0 7.63406 0 8.28125V12.9688C0 13.6159 0.524687 14.1406 1.17188 14.1406H5.85938C6.50656 14.1406 7.03125 13.6159 7.03125 12.9688V8.28125C7.03125 7.63406 6.50656 7.10938 5.85938 7.10938ZM5.85938 16.4844H1.17188C0.524687 16.4844 0 17.0091 0 17.6562V22.3438C0 22.9909 0.524687 23.5156 1.17188 23.5156H5.85938C6.50656 23.5156 7.03125 22.9909 7.03125 22.3438V17.6562C7.03125 17.0091 6.50656 16.4844 5.85938 16.4844ZM5.85938 25.8594H1.17188C0.524687 25.8594 0 26.3841 0 27.0312V31.7188C0 32.3659 0.524687 32.8906 1.17188 32.8906H5.85938C6.50656 32.8906 7.03125 32.3659 7.03125 31.7188V27.0312C7.03125 26.3841 6.50656 25.8594 5.85938 25.8594Z" fill="url(#paint0_linear_5373_74060)"/>
<path d="M38.8281 7.10938H10.5469C9.89969 7.10938 9.375 7.63406 9.375 8.28125V12.9688C9.375 13.6159 9.89969 14.1406 10.5469 14.1406H38.8281C39.4753 14.1406 40 13.6159 40 12.9688V8.28125C40 7.63406 39.4753 7.10938 38.8281 7.10938ZM38.8281 16.4844H10.5469C9.89969 16.4844 9.375 17.0091 9.375 17.6562V22.3438C9.375 22.9909 9.89969 23.5156 10.5469 23.5156H38.8281C39.4753 23.5156 40 22.9909 40 22.3438V17.6562C40 17.0091 39.4753 16.4844 38.8281 16.4844ZM38.8281 25.8594H10.5469C9.89969 25.8594 9.375 26.3841 9.375 27.0312V31.7188C9.375 32.3659 9.89969 32.8906 10.5469 32.8906H38.8281C39.4753 32.8906 40 32.3659 40 31.7188V27.0312C40 26.3841 39.4753 25.8594 38.8281 25.8594Z" fill="url(#paint1_linear_5373_74060)"/>
<defs>
<linearGradient id="paint0_linear_5373_74060" x1="1.91667" y1="7.10937" x2="13.947" y2="13.0464" gradientUnits="userSpaceOnUse">
<stop stop-color="#BEE342"/>
<stop offset="1" stop-color="#96CD0D"/>
</linearGradient>
<linearGradient id="paint1_linear_5373_74060" x1="40" y1="20" x2="9.375" y2="20" gradientUnits="userSpaceOnUse">
<stop stop-color="#008047"/>
<stop offset="1" stop-color="#5FB621"/>
</linearGradient>
</defs>
</svg>
