<svg width="40" height="40" viewBox="0 0 40 40" fill="none" xmlns="http://www.w3.org/2000/svg">
<g clip-path="url(#clip0_7056_228598)">
<path d="M31.7969 40C27.2737 40 23.5938 36.3201 23.5938 31.7969C23.5938 27.2737 27.2737 23.5938 31.7969 23.5938C36.3201 23.5938 40 27.2737 40 31.7969C40 36.3201 36.3201 40 31.7969 40Z" fill="url(#paint0_linear_7056_228598)"/>
<path d="M31.7969 40H1.17188C0.524687 40 0 39.4753 0 38.8281V34.7656C0 27.7702 4.3407 21.6029 10.6662 19.124C12.3951 20.3632 14.5122 21.0937 16.7969 21.0937C19.0816 21.0937 21.1987 20.3632 22.9276 19.1239C25.5455 20.1498 27.8232 21.8077 29.5941 23.8945C26.1373 24.8593 23.5938 28.0365 23.5938 31.7969C23.5938 36.3201 27.2737 40 31.7969 40ZM34.9219 30.625H32.9688V28.6719C32.9688 28.0247 32.4441 27.5 31.7969 27.5C31.1497 27.5 30.625 28.0247 30.625 28.6719V30.625H28.6719C28.0247 30.625 27.5 31.1497 27.5 31.7969C27.5 32.4441 28.0247 32.9687 28.6719 32.9687H30.625V34.9219C30.625 35.5691 31.1497 36.0937 31.7969 36.0937C32.4441 36.0937 32.9688 35.5691 32.9688 34.9219V32.9687H34.9219C35.5691 32.9687 36.0938 32.4441 36.0938 31.7969C36.0938 31.1497 35.5691 30.625 34.9219 30.625Z" fill="url(#paint1_linear_7056_228598)"/>
<path d="M6.25 10.5469C6.25 16.3624 10.9813 21.0938 16.7969 21.0938C22.6124 21.0938 27.3438 16.3624 27.3438 10.5469C27.3438 4.73133 22.6124 0 16.7969 0C10.9813 0 6.25 4.73133 6.25 10.5469Z" fill="url(#paint2_linear_7056_228598)"/>
</g>
<defs>
<linearGradient id="paint0_linear_7056_228598" x1="28.066" y1="23.5937" x2="36.2326" y2="38.3715" gradientUnits="userSpaceOnUse">
<stop stop-color="#BEE342"/>
<stop offset="1" stop-color="#96CD0D"/>
</linearGradient>
<linearGradient id="paint1_linear_7056_228598" x1="36.0938" y1="29.562" x2="3.66849e-09" y2="29.562" gradientUnits="userSpaceOnUse">
<stop stop-color="#008047"/>
<stop offset="1" stop-color="#5FB621"/>
</linearGradient>
<linearGradient id="paint2_linear_7056_228598" x1="12" y1="-4.72698e-09" x2="22.5" y2="19" gradientUnits="userSpaceOnUse">
<stop stop-color="#BEE342"/>
<stop offset="1" stop-color="#96CD0D"/>
</linearGradient>
<clipPath id="clip0_7056_228598">
<rect width="40" height="40" fill="white"/>
</clipPath>
</defs>
</svg>
