<svg width="32" height="32" viewBox="0 0 32 32" fill="none" xmlns="http://www.w3.org/2000/svg">
<rect x="0.5" y="0.5" width="31" height="31" rx="7.5" fill="white" stroke="#E9E9E9"/>
<g clip-path="url(#clip0_12724_29004)">
<path d="M17.5984 21.5995C17.5984 21.7056 17.5563 21.8073 17.4813 21.8823C17.4063 21.9573 17.3045 21.9995 17.1984 21.9995H8.39844C8.29235 21.9995 8.19061 21.9573 8.11559 21.8823C8.04058 21.8073 7.99844 21.7056 7.99844 21.5995V9.19947C7.99844 9.09338 8.04058 8.99164 8.11559 8.91662C8.19061 8.84161 8.29235 8.79946 8.39844 8.79946H13.3968C13.4233 8.79957 13.4496 8.79443 13.4741 8.78433C13.4986 8.77424 13.5209 8.7594 13.5396 8.74065C13.5584 8.72191 13.5732 8.69965 13.5833 8.67514C13.5934 8.65063 13.5985 8.62437 13.5984 8.59786C13.5345 7.94434 13.6317 7.2851 13.8816 6.67787C13.8953 6.64743 13.901 6.61403 13.8983 6.58078C13.8955 6.54754 13.8844 6.51553 13.866 6.48773C13.8475 6.45994 13.8223 6.43727 13.7928 6.42184C13.7632 6.4064 13.7302 6.39871 13.6968 6.39947H8.79844C8.16192 6.39947 7.55147 6.65232 7.10138 7.10241C6.65129 7.5525 6.39844 8.16295 6.39844 8.79946V23.1995C6.39844 23.836 6.65129 24.4464 7.10138 24.8965C7.55147 25.3466 8.16192 25.5995 8.79844 25.5995H16.7984C17.435 25.5995 18.0454 25.3466 18.4955 24.8965C18.9456 24.4464 19.1984 23.836 19.1984 23.1995V16.1995C19.1984 16.1464 19.1774 16.0956 19.1399 16.058C19.1024 16.0205 19.0515 15.9995 18.9984 15.9995H17.7984C17.7454 15.9995 17.6945 16.0205 17.657 16.058C17.6195 16.0956 17.5984 16.1464 17.5984 16.1995V21.5995Z" fill="#008047"/>
<path d="M24.1969 6.39941H16.1969C15.8257 6.39984 15.4699 6.54747 15.2074 6.80993C14.9449 7.07239 14.7973 7.42824 14.7969 7.79941V13.3994C14.7973 13.7706 14.9449 14.1264 15.2074 14.3889C15.4699 14.6514 15.8257 14.799 16.1969 14.7994H24.1969C24.568 14.799 24.9239 14.6514 25.1864 14.3889C25.4488 14.1264 25.5965 13.7706 25.5969 13.3994V7.79941C25.5965 7.42824 25.4488 7.07239 25.1864 6.80993C24.9239 6.54747 24.568 6.39984 24.1969 6.39941V6.39941ZM24.1969 13.5994H16.1969C16.1438 13.5994 16.093 13.5783 16.0555 13.5408C16.0179 13.5033 15.9969 13.4525 15.9969 13.3994V10.7994H24.3969V13.3994C24.3969 13.4525 24.3758 13.5033 24.3383 13.5408C24.3008 13.5783 24.2499 13.5994 24.1969 13.5994ZM16.1969 7.59941H24.1969C24.2499 7.59941 24.3008 7.62049 24.3383 7.65799C24.3758 7.6955 24.3969 7.74637 24.3969 7.79941V8.79941H15.9969V7.79941C15.9969 7.74637 16.0179 7.6955 16.0555 7.65799C16.093 7.62049 16.1438 7.59941 16.1969 7.59941Z" fill="#008047"/>
<path d="M23.2 12.1996C23.2 12.0405 23.1368 11.8879 23.0243 11.7753C22.9117 11.6628 22.7591 11.5996 22.6 11.5996H21.6C21.4409 11.5996 21.2883 11.6628 21.1757 11.7753C21.0632 11.8879 21 12.0405 21 12.1996C21 12.3587 21.0632 12.5114 21.1757 12.6239C21.2883 12.7364 21.4409 12.7996 21.6 12.7996H22.6C22.7591 12.7996 22.9117 12.7364 23.0243 12.6239C23.1368 12.5114 23.2 12.3587 23.2 12.1996Z" fill="#008047"/>
</g>
<defs>
<clipPath id="clip0_12724_29004">
<rect width="19.2" height="19.2" fill="white" transform="translate(6.39844 6.39941)"/>
</clipPath>
</defs>
</svg>
