<svg width="20" height="20" viewBox="0 0 20 20" fill="none" xmlns="http://www.w3.org/2000/svg">
<path d="M1.64078e-07 18.1232C2.02534e-07 17.6833 0.146843 17.2434 0.528635 16.8622L16.7107 0.586511C17.0925 0.175953 17.5918 -2.10534e-07 18.091 -1.66887e-07C19.0602 -8.21596e-08 20 0.762461 20 1.87683L20 12.1408C20 16.4223 16.3583 19.9707 11.8943 19.9707C9.10426 20 5.2276 20 1.90895 20C0.76358 20 7.94751e-08 19.0909 1.64078e-07 18.1232Z" fill="white"/>
<path d="M20 1.87683C20 2.31671 19.8532 2.7566 19.4714 3.13783L3.28928 19.4135C2.90749 19.824 2.40822 20 1.90896 20C0.939796 20 0 19.2375 0 18.1232V7.85924C0 3.57771 3.64171 0.0293234 8.10573 0.0293234C10.8957 -2.1268e-06 14.7724 0 18.091 0C19.2364 0 20 0.909089 20 1.87683Z" fill="#BB2218"/>
</svg>
