<svg width="40" height="40" viewBox="0 0 40 40" fill="none" xmlns="http://www.w3.org/2000/svg">
<path fill-rule="evenodd" clip-rule="evenodd" d="M29.3997 10.5938C29.2497 10.5938 29.133 10.5105 29.0663 10.394L28.8997 10.0277L28.6643 9.5309L28.6643 9.53087C28.2788 8.71664 27.8789 7.87184 27.6163 7.34739C26.8497 5.84906 25.533 5.01665 23.9163 5H16.0663C14.4497 5.01665 13.1497 5.84906 12.383 7.34739C12.0907 7.93133 11.619 8.92489 11.1926 9.82297L11.1926 9.823L11.0163 10.1942L10.9163 10.394C10.8663 10.5272 10.733 10.5938 10.5997 10.5938C6.58301 10.5938 3.33301 13.8568 3.33301 17.8524V27.7414C3.33301 31.737 6.58301 35 10.5997 35H29.3997C33.3997 35 36.6663 31.737 36.6663 27.7414V17.8524C36.6663 13.8568 33.3997 10.5938 29.3997 10.5938ZM13.9995 22C13.9995 18.6808 16.6596 16 19.9995 16C22.0379 16 23.5689 16.8455 24.6102 17.7149C24.682 17.7749 24.7514 17.8348 24.8183 17.8945H23.8941C23.3418 17.8945 22.8941 18.3423 22.8941 18.8945C22.8941 19.4468 23.3418 19.8945 23.8941 19.8945H26.9995C27.5518 19.8945 27.9995 19.4468 27.9995 18.8945V15.3945C27.9995 14.8423 27.5518 14.3945 26.9995 14.3945C26.4472 14.3945 25.9995 14.8423 25.9995 15.3945V16.2707C25.9642 16.2403 25.9284 16.21 25.892 16.1797C24.601 15.1018 22.632 14 19.9995 14C15.5503 14 11.9995 17.581 11.9995 22C11.9995 22.5523 12.4472 23 12.9995 23C13.5518 23 13.9995 22.5523 13.9995 22ZM27.9995 22C27.9995 21.4477 27.5518 21 26.9995 21C26.4472 21 25.9995 21.4477 25.9995 22C25.9995 25.3168 23.3163 28 19.9995 28C18.4123 28 17.0865 27.2 16.109 26.3124C16.0329 26.2433 15.9595 26.1742 15.8888 26.1055H16.9322C17.4845 26.1055 17.9322 25.6577 17.9322 25.1055C17.9322 24.5532 17.4845 24.1055 16.9322 24.1055H13.7759C13.2236 24.1055 12.7759 24.5532 12.7759 25.1055V28.6055C12.7759 29.1577 13.2236 29.6055 13.7759 29.6055C14.3281 29.6055 14.7759 29.1577 14.7759 28.6055V27.8033C15.9431 28.8602 17.725 30 19.9995 30C24.4209 30 27.9995 26.4214 27.9995 22Z" fill="white"/>
</svg>
