<svg width="32" height="32" viewBox="0 0 32 32" fill="none" xmlns="http://www.w3.org/2000/svg">
<rect x="0.5" y="0.5" width="31" height="31" rx="7.5" fill="white" stroke="#E9E9E9"/>
<g clip-path="url(#clip0_12724_28982)">
<path d="M24.7965 10.9426C24.7842 9.75556 24.2782 8.83499 23.4761 8.36258C23.402 8.32625 23.328 8.27779 23.2416 8.24146C23.3033 8.27779 23.8587 8.55639 24.1301 9.2226C24.2536 9.52542 24.3523 10.0342 24.1672 10.773C24.1672 10.773 24.1178 10.9426 24.0931 11.0395V11.0516C24.0808 11.0759 24.0808 11.1122 24.0684 11.1485C24.0684 11.1607 24.0684 11.1607 24.0561 11.1728C23.6859 12.2993 23.0195 13.6922 22.1433 15.1337C21.2918 16.5267 20.3786 17.7137 19.5517 18.5616C19.5517 18.5616 19.5517 18.5616 19.5394 18.5737C19.1692 18.9371 18.8977 19.0582 18.7249 19.0946C18.5151 19.1309 18.3917 19.0946 18.3917 19.0946C18.1943 19.0582 17.9474 18.8887 17.713 18.6949C16.664 17.8954 15.3436 16.454 14.0848 14.6976C12.0856 11.8511 10.9503 9.17415 11.3699 8.33836C11.3699 8.33836 11.6537 7.6237 12.9495 7.39355C9.29661 7.87807 7.70466 8.95611 7.07528 9.57387L7.0506 9.5981C6.55697 10.0947 6.27314 10.773 6.40889 11.7905C6.40889 11.7905 6.42123 11.8511 6.44591 11.9722C6.45825 12.0328 6.47059 12.1055 6.48293 12.1781C6.68038 13.1472 7.13699 14.3827 7.79105 15.6545C7.96381 15.9816 8.13658 16.2844 8.30935 16.5872C8.7783 17.4109 9.30895 18.2346 9.91365 19.0461C11.2835 20.8994 12.8261 22.4377 14.3686 23.5763C14.4921 23.6733 14.6155 23.7702 14.7512 23.8671C15.0474 24.0851 15.3436 24.2668 15.6151 24.4242C15.8372 24.5575 16.084 24.6665 16.3432 24.7271C16.4049 24.7392 16.4666 24.7634 16.5406 24.7634C16.7134 24.7997 16.8861 24.8119 17.0713 24.7997C17.8364 24.7876 18.5151 24.4485 18.9841 23.9155C19.0087 23.8913 19.0581 23.8428 19.1198 23.7702C19.3419 23.5158 19.6628 23.1282 20.0454 22.5589C21.0573 21.1538 22.0075 19.4701 22.8344 17.6047C23.7599 15.5092 24.3893 13.45 24.7348 11.6088C24.7842 11.3908 24.7965 11.1728 24.7965 10.9426Z" fill="#008047"/>
<path d="M23.6526 8.98079C23.3441 8.43571 22.616 8.06021 22.4308 7.98753C21.1968 7.46668 19.7159 7.394 18.5559 7.2971C17.8278 7.23653 17.075 7.2002 16.3099 7.2002C15.5324 7.2002 14.6809 7.21231 13.9898 7.2971C13.9281 7.30921 12.4472 7.52724 11.9289 8.31458C11.6574 8.72642 11.8672 9.41685 12.0029 9.82869C12.4966 11.3065 13.5332 12.8569 13.5579 12.8569C14.0392 12.7842 14.6068 12.7479 15.1745 12.7116C15.6435 12.6873 16.1618 12.6631 16.7541 12.651C18.6052 12.6268 20.2465 12.7963 21.3572 13.0749C21.567 13.1234 21.7644 13.184 21.9249 13.2566C22.1347 13.3656 22.2828 13.511 22.3691 13.6806C22.3815 13.7048 24.43 10.3253 23.6526 8.98079Z" fill="#008047"/>
</g>
<defs>
<clipPath id="clip0_12724_28982">
<rect x="6.39844" y="7.2002" width="18.4" height="17.6" fill="white"/>
</clipPath>
</defs>
</svg>
