<svg width="240" height="240" viewBox="0 0 240 240" fill="none" xmlns="http://www.w3.org/2000/svg">
<g clip-path="url(#clip0_16615_191755)">
<path d="M218.896 198.351C214.171 199.072 208.712 199.707 202.684 200.232C206.579 200.891 219.545 203.234 219.545 207.206C219.545 211.584 203.386 215.512 180.416 217.331C173.248 217.909 164.906 218.295 156.039 218.377C120.962 218.735 92.5332 214.314 92.5332 208.5C92.5332 207.087 94.1892 205.736 97.2197 204.48C93.817 204.624 90.3045 204.714 86.7157 204.752C54.6835 205.101 28.7266 200.867 28.7266 195.286C28.7266 190.575 46.3653 187.787 50.9038 187.114C21.8591 180.722 55.4805 171.022 98.3412 170.602C102.379 170.559 134.64 169.217 149.062 169.098C203.906 168.654 242.768 177.394 208.755 184.23C226.508 185.83 238.019 188.541 238.019 191.696C238.019 194.198 230.77 196.546 218.896 198.351Z" fill="white"/>
<path d="M172.278 186.703C172.278 192.785 156.739 197.821 136.504 198.661C135.449 198.709 134.38 198.742 133.297 198.761C110.227 199.196 88.7422 193.983 88.7422 186.703C88.7422 181.853 98.683 177.667 113.014 175.757C122.268 174.525 132.519 174.344 141.491 175.07C159.244 176.464 172.278 181.147 172.278 186.703Z" fill="#F2F2F2"/>
<path d="M182.624 212.438C182.338 214.238 181.546 215.894 180.424 217.331C172.917 217.928 164.685 218.295 156.047 218.376C120.97 218.734 92.541 214.314 92.541 208.5C92.541 207.087 94.197 205.736 97.2275 204.48C93.8248 204.623 90.3123 204.714 86.7235 204.752C54.6913 205.101 28.7344 200.866 28.7344 195.286C28.7344 192.283 36.2365 189.519 48.1484 187.548L48.6209 187.935C45.2563 188.483 44.1825 193.31 46.0533 196.16C47.9193 199.014 51.4413 200.236 54.7438 201.072C70.7313 205.134 87.8688 204.542 103.537 199.382C100.697 202.666 100.539 212.376 116.327 214.171C131.307 215.875 146.746 213.369 160.428 207.02C164.494 214.581 175.528 217.274 182.624 212.438Z" fill="white"/>
<path d="M202.434 187.625C202.792 187.515 203.154 187.424 203.531 187.348C203.202 187.486 202.839 187.586 202.434 187.625Z" fill="#DCD9FC"/>
<path d="M238.021 191.696C238.021 194.198 230.767 196.546 218.898 198.351C213.586 198.083 208.322 197.324 203.278 196.074C205.693 196.427 208.208 196.78 210.594 196.317C213.448 195.773 216.287 193.715 214.421 190.899C212.517 188.059 207.664 186.536 203.531 187.343C205.573 186.498 208.589 182.173 198.41 179.203C194.592 178.101 190.655 177.222 186.646 176.583C179.946 175.509 173.379 175.714 166.636 175.217C160.732 174.788 161.119 170.993 164.817 169.222C211.147 170.372 239.281 178.096 208.756 184.23C226.51 185.829 238.021 188.541 238.021 191.696Z" fill="white"/>
<path d="M70.4973 217.302C77.7639 217.302 83.6547 215.864 83.6547 214.09C83.6547 212.315 77.7639 210.877 70.4973 210.877C63.2306 210.877 57.3398 212.315 57.3398 214.09C57.3398 215.864 63.2306 217.302 70.4973 217.302Z" fill="white"/>
<path d="M34.5982 184.698C34.5982 185.977 30.3508 187.013 25.1155 187.013C19.8707 187.013 15.6328 185.973 15.6328 184.698C15.6328 183.419 19.8707 182.383 25.1155 182.383C30.3508 182.378 34.5982 183.419 34.5982 184.698Z" fill="white"/>
<path d="M240.003 181.906C240.003 182.813 236.987 183.553 233.269 183.553C229.547 183.553 226.535 182.817 226.535 181.906C226.535 180.999 229.542 180.259 233.269 180.259C236.987 180.264 240.003 180.999 240.003 181.906Z" fill="white"/>
<path d="M171.445 184.684C171.445 194.236 135.49 199.735 108.583 195.109C96.218 193.014 87.9141 189.133 87.9141 184.684C87.9141 179.833 97.8549 175.647 112.186 173.737C121.516 172.492 131.744 172.329 140.663 173.05C158.412 174.444 171.445 179.127 171.445 184.684Z" fill="#D9D9D9"/>
<path d="M140.664 173.051C140.612 173.308 140.555 173.566 140.502 173.824C138.445 183.562 136.761 191.52 135.677 196.642C128.314 196.976 119.494 196.68 111.648 195.587C113.171 186.345 114.369 179.4 115.404 173.356C123.928 172.454 132.962 172.425 140.664 173.051Z" fill="#B5B5B5"/>
<path d="M171.445 184.679C171.445 185.662 171.039 186.617 170.266 187.534C168.873 181.953 152.737 177.533 133.013 177.533C112.392 177.533 95.6787 182.378 95.6787 188.316C95.6787 189.992 96.9911 191.567 99.3248 192.985C92.2474 190.813 87.9141 187.896 87.9141 184.674C87.9141 178.034 106.607 172.621 129.672 172.621C152.752 172.625 171.445 178.039 171.445 184.679Z" fill="#B5B5B5"/>
<path d="M167.529 30.2789C160.771 63.0789 133.22 193.119 132.471 196.742C124.735 196.89 116.402 196.446 108.59 195.11C112.155 173.408 133.883 44.4376 144.364 25.3715C147.217 20.1825 168.731 24.4836 167.529 30.2789Z" fill="#CDCDCD"/>
<path d="M165.269 41.1485C164.653 44.0891 163.961 47.3925 163.207 50.987C155.576 52.2903 143.569 52.6149 136.84 48.7004C138.147 43.5305 139.407 38.9526 140.596 35.1479C145.731 37.6685 154.192 40.2367 165.269 41.1485Z" fill="#A3A3A3"/>
<path d="M69.4414 53.4551L71.0258 57.8707L73.3882 57.6846L69.4414 53.4551Z" fill="#B5B5B5"/>
<path d="M225.379 56.7778C221.575 76.5981 220.029 84.637 219.547 87.1623H207.473L208.823 87.9118C208.828 87.9118 208.828 87.9118 208.833 87.9166C208.838 87.9166 208.838 87.9166 208.842 87.9213C208.89 87.9452 212.36 89.8833 212.14 89.7592L218.492 93.2965C209.219 136.618 210.651 129.935 207.201 146.065C183.482 141.172 178.614 140.198 178.566 140.15C177.612 139.955 160.474 136.417 56.3555 114.921C57.2622 110.291 67.4942 58.1956 67.5037 58.1478C68.105 58.1001 65.3228 58.3149 73.3928 57.6943C67.9857 51.8895 69.8517 53.8945 69.4509 53.4601C72.5481 33.6875 71.4409 40.743 73.0349 30.5416L73.1876 29.5678L73.8796 25.1426C82.7753 26.9948 216.75 54.9781 225.379 56.7778Z" fill="#B5B5B5"/>
<path d="M223.513 90.5801H215.424L222.402 95.8932L211.158 149.659L59.9833 118.745L56.3516 114.921L207.197 146.055L218.488 93.282L207.478 87.1621H219.529L225.365 56.7681L230.276 60.9212L223.513 90.5801Z" fill="#8D8D8D"/>
<g opacity="0.4">
<path d="M207.473 87.1622L208.824 87.9116C165.858 76.7269 105.85 72.1012 72.477 57.9233C72.3959 57.8899 72.3386 57.8374 72.2909 57.7706C72.0427 57.4173 72.415 56.94 72.8206 57.1166C110.269 72.1203 165.662 75.6958 209.411 87.1622H207.473Z" fill="#D9D9D9"/>
<g opacity="0.7">
<path d="M213.285 117.604L213.013 118.869C209.739 121.471 208.073 125.127 205.592 128.44C200.342 135.467 191.618 140.279 181.725 140.279C180.919 140.279 178.609 140.193 178.561 140.145C174.815 139.849 171.111 139.081 167.489 138.327C167.25 138.279 167.098 138.045 167.145 137.811C167.145 137.806 167.15 137.797 167.15 137.792C167.207 137.563 167.432 137.42 167.661 137.472C173.187 138.618 178.9 139.806 184.603 139.277C192.534 138.546 200.118 134.298 204.89 127.92C207.472 124.473 209.519 120.039 213.285 117.604Z" fill="white"/>
<path opacity="0.8" d="M210.823 101.498C209.138 105.885 206.408 109.79 203.707 113.356C199.55 118.85 194.802 124.292 188.316 126.837C173.393 132.699 156.532 121.099 141.943 126.951C139.151 128.068 136.603 129.796 133.83 130.918L132.184 130.574C135.472 129.543 138.33 127.448 141.619 126.135C156.485 120.177 173.407 131.749 187.997 126.02C194.282 123.552 198.925 118.22 203.01 112.826C205.669 109.313 208.36 105.465 210.007 101.183C211.605 97.025 211.987 92.8146 211.119 89.1914L212.135 89.7547H212.14C212.822 93.3684 212.374 97.4594 210.823 101.498Z" fill="white"/>
<path opacity="0.8" d="M222.729 70.5644L222.529 71.6098C220.477 72.4643 218.262 72.8176 216.177 72.8176C204.995 72.8176 196.639 62.9026 186.345 59.7711C168.907 54.4628 149.254 68.6263 131.882 62.0863C124.962 59.4847 119.627 53.9615 113.571 49.8848C101.144 41.5404 85.1084 39.3827 70.9297 43.9797L71.0824 43.0107C85.4138 38.5091 101.535 40.7384 114.058 49.1544C120.09 53.2073 125.445 58.7304 132.193 61.2653C149.173 67.6572 168.907 53.551 186.602 58.9309C196.152 61.8381 203.621 70.1491 213.428 71.7244C216.244 72.1779 219.728 71.987 222.729 70.5644Z" fill="white"/>
<path opacity="0.8" d="M162.032 43.5452C161.965 46.7054 160.075 49.5791 157.427 51.4218C155.456 52.787 152.926 53.7131 149.906 54.1762C140.518 55.5844 131.193 52.1903 122.899 47.5742C114.8 43.0726 107.207 37.2917 98.7743 33.3916C89.4252 29.0761 80.3386 28.0737 73.0273 30.5321L73.1801 29.5583C80.6297 27.2049 89.7688 28.2598 99.137 32.5896C107.684 36.547 115.167 42.2706 123.323 46.8056C133.312 52.3574 141.959 54.4865 149.772 53.3074C157.68 52.1044 161.116 47.598 161.159 43.359L162.032 43.5452Z" fill="white"/>
<path opacity="0.8" d="M143.591 114.129C139.086 116.769 133.717 117.346 129.541 117.556C124.736 117.795 119.72 117.633 114.652 116.993C112.366 116.697 109.726 116.277 107.431 114.978C104.945 113.561 103.312 111.198 103.169 108.811C102.921 104.629 106.973 101.421 110.843 100.209C116.651 98.3899 123.204 99.2158 128.382 102.419C128.587 102.548 128.649 102.815 128.52 103.02C128.391 103.226 128.119 103.292 127.914 103.164C122.955 100.094 116.67 99.3065 111.101 101.044C107.545 102.152 103.823 105.04 104.047 108.758C104.171 110.854 105.632 112.94 107.865 114.21C110.027 115.432 112.556 115.838 114.761 116.115C119.634 116.735 124.592 116.926 129.498 116.678C133.574 116.477 138.809 115.909 143.147 113.37C147.567 110.782 150.268 106.348 150.034 102.07C149.857 98.8148 147.977 95.4875 144.88 92.9431C142.016 90.5945 138.523 89.1146 135.187 87.8067C112.528 78.9037 88.7423 74.1587 64.4414 73.6861L64.618 72.8125C88.2555 73.2755 112.146 77.8105 135.507 86.9903C138.91 88.327 142.474 89.8355 145.438 92.2653C148.726 94.9672 150.716 98.5188 150.912 102.027C151.16 106.625 148.287 111.374 143.591 114.129Z" fill="white"/>
<path opacity="0.8" d="M90.5397 102.791C89.7474 105.555 87.7001 107.99 84.9226 109.465C78.3987 112.95 71.4311 109.46 71.4072 104.906C71.3881 102.357 73.5691 100.428 75.5974 99.7171C77.7879 98.9486 80.1788 99.13 82.2882 99.2923C82.5316 99.3114 82.7082 99.5214 82.6891 99.7601C82.67 99.9988 82.46 100.185 82.2214 100.161C80.1979 100.008 77.9024 99.8317 75.8837 100.543C74.1418 101.154 72.2662 102.772 72.2806 104.897C72.3044 108.706 78.5085 111.885 84.5074 108.692C87.0749 107.322 88.9695 105.083 89.6902 102.548C90.9167 98.2707 89.1891 93.1676 85.3998 89.8499C81.2526 86.2315 75.898 85.3197 72.1326 85.1908C68.7108 85.0762 65.2031 85.544 61.9961 86.1312L62.1774 85.2099C65.3415 84.6466 68.7824 84.2074 72.1612 84.3172C76.0698 84.4509 81.6392 85.4008 85.9725 89.1911C90.0242 92.7284 91.8521 98.1943 90.5397 102.791Z" fill="white"/>
</g>
</g>
<path d="M219.552 207.206C219.552 211.583 203.392 215.512 180.423 217.331C178.461 217.488 176.448 217.627 174.391 217.751C174.391 216.935 175.254 216.195 176.013 216.448L177.851 215.254C190.831 215.011 203.736 211.531 215.075 205.206C215.738 204.838 216.426 204.451 217.175 204.356C218.721 205.253 219.552 206.203 219.552 207.206Z" fill="white"/>
<g opacity="0.4">
<path opacity="0.9" d="M120.035 183.857C120.913 186.797 123.521 189.273 124.618 192.265C124.728 192.557 125.534 195.372 125.93 196.8C125.701 196.795 125.472 196.791 125.248 196.781C124.862 195.399 124.094 192.71 124.003 192.478C122.911 189.505 120.331 187.154 119.406 184.033C118.047 179.488 120.436 174.934 122.777 170.881C127.337 162.937 128.114 159.732 123.183 150.128C117.78 154.153 116.206 161.063 117.512 163.786C118.633 166.118 121.566 166.285 122.673 163.679C123.13 162.608 123.102 161.36 123.021 160.396C122.983 159.871 122.911 159.273 122.611 158.814C121.828 157.659 120.479 158.452 120.913 159.658C121.118 160.242 121.642 160.683 122.186 161.073L121.795 161.587C121.17 161.138 120.55 160.613 120.288 159.867C119.601 157.942 121.962 156.676 123.154 158.471C123.545 159.051 123.626 159.742 123.674 160.344C123.755 161.383 123.784 162.724 123.273 163.925C121.957 166.999 118.299 166.934 116.912 164.055C116.406 162.993 116.277 161.736 116.511 160.08C117.102 155.906 119.42 152.071 122.878 149.53C121.662 147.072 120.464 144.526 119.997 141.799C119.453 138.659 119.983 134.439 123.107 132L123.517 132.496C120.617 134.764 120.131 138.729 120.646 141.688C121.814 148.445 127.656 154.255 127.17 161.411C126.927 164.945 125.105 168.112 123.34 171.178C121.113 175.055 118.733 179.511 120.035 183.857Z" fill="#F9F9F9"/>
</g>
<g opacity="0.4">
<path opacity="0.9" d="M138.808 141.394C138.059 143.719 136.516 145.759 135.438 147.975C133.703 151.544 133.257 155.609 134.199 159.419C134.791 161.803 135.884 164.12 135.929 166.567C136.04 172.349 130.383 177.253 130.793 182.839C130.97 185.292 132.412 187.785 133.865 189.897C133.789 190.205 133.723 190.505 133.652 190.8C131.972 188.393 130.302 185.619 130.1 182.88C129.67 177.094 135.342 172.171 135.236 166.576C135.195 164.201 134.082 161.853 133.526 159.555C132.554 155.622 133.009 151.422 134.806 147.729C135.742 145.799 137.088 143.937 137.882 141.944C134.391 139.559 129.503 140.976 128.213 144.582C127.489 146.626 128.147 148.947 128.673 150.813L128 150.968C127.449 149.024 126.766 146.608 127.55 144.392C128.972 140.418 134.34 138.833 138.115 141.317C138.13 141.285 138.14 141.253 138.145 141.222C138.773 139.278 138.763 136.453 136.683 134.882L137.133 134.4C139.461 136.158 139.491 139.264 138.808 141.394Z" fill="#F9F9F9"/>
</g>
<g opacity="0.4">
<path d="M119.275 196.394C119.055 196.37 118.835 196.36 118.621 196.341C118.778 191.505 116.153 190.24 114.268 187.457C112.965 185.543 112.321 183.214 112.455 180.903C112.622 177.996 114.154 174.611 112.474 172.091C112.522 171.8 112.569 171.513 112.622 171.217C115.061 173.895 113.285 178.025 113.113 180.941C112.989 183.109 113.591 185.29 114.812 187.085C116.616 189.744 119.465 191.276 119.275 196.394Z" fill="#F9F9F9"/>
</g>
<path d="M45.0061 77.3095C45.2208 77.9491 45.0156 78.7081 44.5193 79.1521C43.1973 80.3169 39.0406 79.8538 36.8978 76.813C35.1416 79.5197 31.9966 80.6128 28.8134 81.1952C23.6783 82.1213 18.3428 81.8683 13.3271 80.4649C11.7426 80.0161 10.1057 79.4194 9.10352 78.0923C7.52863 78.8657 5.72945 79.176 3.98753 78.9612C1.68725 78.6604 0.985709 77.3381 1.25296 76.3547C1.47726 75.4764 2.49378 75.0038 3.39576 75.0754C4.30251 75.1422 5.11858 75.6243 5.89171 76.0874C5.71036 74.2925 4.38841 72.8699 3.30031 71.414C-2.2595 63.9765 8.86967 61.5515 14.3102 66.8264C13.58 65.2416 12.8307 63.6233 12.5826 61.8857C11.4372 54.0664 21.106 53.1689 26.3079 57.9951C28.3362 59.8759 29.6295 62.5397 29.8299 65.2989C31.3332 63.2796 34.5403 62.8118 36.5494 64.3155C38.5968 65.8431 39.0024 69.0844 37.5134 71.0368C39.5083 70.9318 41.5318 71.3853 43.2833 72.3353C46.4426 74.0252 44.9059 76.2497 43.7844 76.1256C44.3618 76.2497 44.8104 76.7318 45.0061 77.3095Z" fill="white"/>
<path d="M216.523 40.1984C215.507 41.0959 212.3 40.7378 210.648 38.394C209.298 40.4801 206.869 41.325 204.416 41.7737C200.459 42.485 196.346 42.2893 192.48 41.2104C191.258 40.862 189.998 40.4037 189.225 39.3821C188.008 39.9788 186.624 40.2175 185.283 40.0504C183.513 39.8213 182.969 38.7997 183.174 38.0407C183.35 37.3628 184.128 37 184.825 37.0525C185.522 37.1051 186.152 37.4774 186.748 37.8354C186.61 36.4511 185.589 35.3531 184.749 34.2313C184.004 33.2336 183.365 31.9495 183.642 30.7799C184.271 28.1448 189.86 27.4192 193.234 30.694C192.671 29.4719 192.093 28.226 191.902 26.8846C191.024 20.8936 198.45 20.1442 202.483 23.8819C204.048 25.3284 205.041 27.3858 205.198 29.5101C206.358 27.9539 208.83 27.5911 210.376 28.7511C211.956 29.9302 212.266 32.4268 211.116 33.9353C212.653 33.8542 214.213 34.2027 215.564 34.933C217.998 36.2362 216.814 37.95 215.95 37.8545C216.891 38.0646 217.368 39.4394 216.523 40.1984Z" fill="white"/>
<path d="M216.92 39.5158C216.858 39.7736 216.72 40.017 216.519 40.1984C215.503 41.0959 212.296 40.7379 210.644 38.394C209.294 40.4801 206.865 41.325 204.412 41.7738C200.455 42.485 196.342 42.2893 192.476 41.2105C191.254 40.862 189.994 40.4037 189.221 39.3822C188.004 39.9789 186.62 40.2175 185.279 40.0505C183.509 39.8213 182.965 38.7998 183.17 38.0407C183.346 37.3629 184.124 37.0001 184.821 37.0526C185.518 37.1051 186.148 37.4774 186.744 37.8355C186.725 37.6588 186.692 37.4918 186.654 37.3295C188.195 38.6756 191.063 39.6161 193.803 39.3249C196.466 39.0384 198.995 37.6398 200.646 35.5298C200.279 36.6373 199.911 37.7448 199.539 38.857C201.147 38.3892 202.159 36.8473 203.691 36.2458C205.944 35.3579 207.342 37.3056 206.478 38.4561C207.709 37.0144 210.139 36.7853 211.599 38.0026C212.2 38.5038 212.63 39.1864 213.264 39.6352C214.329 40.3894 215.908 40.3082 216.887 39.449C216.906 39.4728 216.911 39.4967 216.92 39.5158Z" fill="white"/>
<g opacity="0.6">
<path d="M211.456 33.3816C211.385 33.4484 211.313 33.5057 211.237 33.563C211.37 31.9208 210.277 30.2596 208.717 29.7297C207.156 29.1998 205.276 29.8586 204.388 31.2382C203.916 26.2545 200.055 22.6551 197.678 22.4737C195.24 22.2828 192.844 24.6887 193.321 28.7177C193.493 30.1593 193.975 31.5485 194.462 32.9138C191.713 30.1546 187.246 29.2714 183.652 30.7799C184.282 28.1448 189.871 27.4192 193.245 30.694C192.682 29.4719 192.104 28.226 191.913 26.8846C191.035 20.8936 198.461 20.1442 202.494 23.8819C204.059 25.3284 205.052 27.3858 205.209 29.5101C206.369 27.9539 208.841 27.5911 210.387 28.7511C211.762 29.787 212.196 31.8445 211.456 33.3816Z" fill="white"/>
</g>
<path d="M194.771 36.0741C196.723 35.3008 198.312 33.6921 199.171 31.7778C199.672 33.926 197.997 36.6804 194.442 37.3678C193.11 37.6256 190.805 37.3296 189.316 36.857C189.312 36.8523 192.256 37.0671 194.771 36.0741Z" fill="white"/>
<g filter="url(#filter0_d_16615_191755)">
<path d="M96.628 63.6547L111.79 66.4188C112.574 66.5618 113.176 66.9361 113.595 67.5415C114.05 68.1224 114.206 68.8043 114.063 69.5873C113.925 70.3402 113.54 70.908 112.909 71.2909C112.313 71.6491 111.623 71.7567 110.839 71.6137L98.1665 69.3033L98.7144 68.6097L97.1023 77.4183L96.8064 76.9909L107.397 78.9217C108.181 79.0647 108.783 79.439 109.202 80.0444C109.657 80.6253 109.813 81.3072 109.67 82.0902C109.532 82.8431 109.148 83.4109 108.516 83.7938C107.921 84.152 107.231 84.2596 106.446 84.1166L95.9915 82.2105L96.2839 81.8904L94.614 91.0153L94.3264 90.5427L106.954 92.8448C107.738 92.9878 108.337 93.3771 108.751 94.0127C109.2 94.6237 109.362 95.2755 109.235 95.9681C109.097 96.721 108.712 97.2888 108.081 97.6717C107.48 98.06 106.787 98.1827 106.003 98.0396L90.8412 95.2755C90.0567 95.1325 89.4398 94.7555 88.9904 94.1445C88.5766 93.509 88.4414 92.7997 88.5847 92.0167L93.3629 65.9069C93.5062 65.1239 93.8812 64.5232 94.4878 64.1047C95.1301 63.6617 95.8435 63.5117 96.628 63.6547Z" fill="white"/>
<path d="M115.338 99.7416C114.554 99.5985 113.952 99.2243 113.533 98.6188C113.119 97.9832 112.984 97.274 113.127 96.491L116.541 77.8347C116.684 77.0517 117.059 76.451 117.666 76.0325C118.278 75.5839 118.976 75.4312 119.761 75.5742C120.545 75.7172 121.144 76.1065 121.558 76.7421C121.977 77.3476 122.115 78.0418 121.972 78.8248L121.195 83.071L121.432 79.9867C121.896 79.3244 122.434 78.769 123.047 78.3205C123.694 77.8473 124.383 77.4905 125.113 77.2502C125.849 76.9797 126.61 76.8229 127.397 76.7797C128.185 76.7365 128.956 76.7837 129.71 76.9212C130.615 77.0862 131.322 77.4797 131.832 78.1017C132.372 78.7292 132.579 79.3892 132.452 80.0819C132.27 81.0757 131.881 81.7517 131.286 82.1099C130.696 82.438 130.099 82.547 129.496 82.437C128.922 82.3325 128.414 82.1308 127.969 81.832C127.555 81.5387 127.047 81.337 126.443 81.227C125.9 81.128 125.317 81.1618 124.694 81.3283C124.107 81.4702 123.522 81.7682 122.94 82.2222C122.389 82.6818 121.888 83.2906 121.437 84.0487C121.022 84.7822 120.716 85.691 120.517 86.7752L118.558 97.4811C118.415 98.2641 118.037 98.8799 117.425 99.3284C116.818 99.7469 116.123 99.8846 115.338 99.7416Z" fill="white"/>
<path d="M134.057 103.154C133.272 103.011 132.67 102.637 132.251 102.031C131.837 101.396 131.702 100.687 131.846 99.9036L135.26 81.2473C135.403 80.4643 135.778 79.8636 136.385 79.4451C136.997 78.9965 137.695 78.8438 138.479 78.9868C139.264 79.1298 139.863 79.5191 140.277 80.1547C140.696 80.7602 140.834 81.4544 140.691 82.2374L139.914 86.4836L140.151 83.3993C140.615 82.737 141.153 82.1816 141.765 81.7331C142.413 81.2599 143.102 80.9031 143.832 80.6628C144.567 80.3923 145.329 80.2355 146.116 80.1923C146.903 80.1491 147.674 80.1963 148.429 80.3338C149.334 80.4988 150.041 80.8923 150.551 81.5143C151.091 82.1418 151.297 82.8018 151.171 83.4945C150.989 84.4883 150.6 85.1643 150.004 85.5225C149.414 85.8506 148.818 85.9596 148.214 85.8496C147.641 85.7451 147.132 85.5434 146.688 85.2446C146.274 84.9513 145.765 84.7496 145.162 84.6396C144.619 84.5406 144.036 84.5744 143.413 84.7409C142.826 84.8828 142.241 85.1808 141.659 85.6348C141.107 86.0944 140.606 86.7032 140.156 87.4613C139.741 88.1948 139.434 89.1036 139.236 90.1878L137.277 100.894C137.133 101.677 136.756 102.292 136.143 102.741C135.537 103.159 134.841 103.297 134.057 103.154Z" fill="white"/>
<path d="M175.756 98.2929C175.304 100.762 174.347 102.844 172.883 104.538C171.455 106.207 169.709 107.398 167.646 108.111C165.612 108.829 163.449 108.979 161.156 108.561C158.863 108.143 156.878 107.237 155.2 105.842C153.552 104.452 152.341 102.722 151.566 100.651C150.827 98.5561 150.684 96.2738 151.136 93.8043C151.588 91.3349 152.527 89.2656 153.955 87.5965C155.419 85.9028 157.167 84.6967 159.201 83.9782C161.27 83.2351 163.451 83.0726 165.744 83.4906C168.037 83.9087 170.005 84.8275 171.647 86.2472C173.325 87.6423 174.533 89.3875 175.272 91.4828C176.047 93.5534 176.208 95.8235 175.756 98.2929ZM170.325 97.3028C170.606 95.7669 170.532 94.3841 170.102 93.1543C169.708 91.8999 169.041 90.8603 168.101 90.0353C167.191 89.2159 166.102 88.6906 164.835 88.4596C163.568 88.2286 162.348 88.333 161.176 88.7729C160.035 89.2183 159.042 89.9554 158.199 90.9843C157.392 91.9885 156.848 93.2586 156.567 94.7944C156.291 96.3002 156.35 97.6803 156.744 98.9347C157.174 100.164 157.844 101.189 158.754 102.008C159.694 102.833 160.798 103.361 162.065 103.592C163.333 103.823 164.537 103.716 165.679 103.271C166.85 102.831 167.84 102.109 168.647 101.105C169.49 100.076 170.05 98.8085 170.325 97.3028Z" fill="white"/>
<path d="M180.113 111.551C179.328 111.408 178.726 111.033 178.307 110.428C177.893 109.792 177.758 109.083 177.901 108.3L181.316 89.6437C181.459 88.8607 181.834 88.26 182.44 87.8416C183.053 87.393 183.751 87.2402 184.535 87.3832C185.32 87.5263 185.919 87.9156 186.333 88.5512C186.752 89.1566 186.89 89.8508 186.747 90.6338L185.97 94.8801L186.207 91.7957C186.671 91.1335 187.209 90.5781 187.821 90.1295C188.469 89.6564 189.158 89.2996 189.888 89.0592C190.623 88.7887 191.384 88.6319 192.172 88.5887C192.959 88.5456 193.73 88.5927 194.484 88.7303C195.39 88.8953 196.097 89.2888 196.607 89.9107C197.147 90.5382 197.353 91.1983 197.227 91.8909C197.045 92.8847 196.656 93.5607 196.06 93.9189C195.47 94.247 194.873 94.3561 194.27 94.2461C193.697 94.1416 193.188 93.9399 192.744 93.6411C192.33 93.3478 191.821 93.1461 191.218 93.0361C190.675 92.9371 190.092 92.9708 189.469 93.1373C188.882 93.2792 188.297 93.5772 187.715 94.0313C187.163 94.4908 186.662 95.0997 186.212 95.8578C185.797 96.5913 185.49 97.5001 185.292 98.5842L183.332 109.29C183.189 110.073 182.811 110.689 182.199 111.137C181.593 111.556 180.897 111.694 180.113 111.551Z" fill="white"/>
</g>
<ellipse opacity="0.15" cx="69.664" cy="204.187" rx="33.4101" ry="3.28" fill="black"/>
<g clip-path="url(#clip1_16615_191755)">
<path d="M93.7693 204.187H44.4682C41.5583 204.187 39.7177 201.139 41.1117 198.653L56.9973 170.354V170.351L65.7674 154.737C67.2189 152.152 71.0254 152.152 72.4769 154.737L97.1258 198.653C98.5232 201.142 96.6758 204.187 93.7693 204.187Z" fill="#B5B5B5"/>
<path d="M73.5759 171.343L71.1432 185.657C71.0721 186.067 70.7101 186.368 70.2838 186.368H67.9458C67.5194 186.368 67.1574 186.067 67.0864 185.657L64.6604 171.343C64.5724 170.824 64.9818 170.354 65.5198 170.354H72.7199C73.2545 170.354 73.6639 170.824 73.5759 171.343Z" fill="white"/>
<path d="M71.7166 191.883C71.7166 193.281 70.5493 194.418 69.1181 194.418C67.6801 194.418 66.5195 193.284 66.5195 191.883C66.5195 190.478 67.6801 189.344 69.1181 189.344C70.5527 189.344 71.7166 190.481 71.7166 191.883Z" fill="white"/>
<path d="M77.9616 204.187H44.4682C41.5583 204.187 39.7177 201.139 41.1117 198.653L56.9973 170.354C51.6446 184.861 60.6583 200.643 76.1074 203.807L77.9616 204.187Z" fill="#AAAAAA"/>
</g>
</g>
<defs>
<filter id="filter0_d_16615_191755" x="88.5312" y="63.6025" width="109.73" height="50.0029" filterUnits="userSpaceOnUse" color-interpolation-filters="sRGB">
<feFlood flood-opacity="0" result="BackgroundImageFix"/>
<feColorMatrix in="SourceAlpha" type="matrix" values="0 0 0 0 0 0 0 0 0 0 0 0 0 0 0 0 0 0 127 0" result="hardAlpha"/>
<feOffset dx="1" dy="2"/>
<feComposite in2="hardAlpha" operator="out"/>
<feColorMatrix type="matrix" values="0 0 0 0 0.525 0 0 0 0 0.525 0 0 0 0 0.525 0 0 0 0.25 0"/>
<feBlend mode="normal" in2="BackgroundImageFix" result="effect1_dropShadow_16615_191755"/>
<feBlend mode="normal" in="SourceGraphic" in2="effect1_dropShadow_16615_191755" result="shape"/>
</filter>
<clipPath id="clip0_16615_191755">
<rect width="238.8" height="196.8" fill="white" transform="translate(1.19922 21.6001)"/>
</clipPath>
<clipPath id="clip1_16615_191755">
<rect width="56.9615" height="51.3867" fill="white" transform="translate(40.6367 152.8)"/>
</clipPath>
</defs>
</svg>
