<svg width="20" height="20" viewBox="0 0 20 20" fill="none" xmlns="http://www.w3.org/2000/svg">
<path fill-rule="evenodd" clip-rule="evenodd" d="M10.0004 6.74121C8.97866 6.74121 8.15039 7.56948 8.15039 8.59121C8.15039 9.61294 8.97866 10.4412 10.0004 10.4412C11.0221 10.4412 11.8504 9.61294 11.8504 8.59121C11.8504 7.56948 11.0221 6.74121 10.0004 6.74121ZM6.65039 8.59121C6.65039 6.74106 8.15024 5.24121 10.0004 5.24121C11.8505 5.24121 13.3504 6.74106 13.3504 8.59121C13.3504 10.4414 11.8505 11.9412 10.0004 11.9412C8.15024 11.9412 6.65039 10.4414 6.65039 8.59121Z" fill="#1B1B1B"/>
<path fill-rule="evenodd" clip-rule="evenodd" d="M10.0027 2.41699C7.2024 2.4151 4.47718 4.03734 3.74815 7.24133C2.88285 11.0647 5.24968 14.3963 7.51169 16.5765C8.90551 17.9147 11.0957 17.9127 12.4792 16.5774L12.4806 16.576C14.7509 14.3959 17.1174 11.0724 16.2519 7.24925L16.2519 7.24922C15.5267 4.04503 12.8032 2.41889 10.0027 2.41699ZM17.7149 6.9181C16.8068 2.90562 13.3678 0.919268 10.0037 0.916994C6.63954 0.91472 3.1982 2.89652 2.28544 6.90897L2.28526 6.90973C1.23423 11.5526 4.13355 15.404 6.4713 17.657L6.47225 17.6579C8.4449 19.5525 11.554 19.5545 13.5203 17.6572C15.8666 15.4039 18.766 11.5611 17.7149 6.9181Z" fill="#1B1B1B"/>
</svg>
