<svg width="332" height="113" viewBox="0 0 332 113" fill="none" xmlns="http://www.w3.org/2000/svg">
<g clip-path="url(#clip0_227_3809)">
<mask id="mask0_227_3809" style="mask-type:alpha" maskUnits="userSpaceOnUse" x="243" y="0" width="54" height="31">
<path d="M250.605 1.4002C250.555 1.4502 250.605 1.4002 250.605 1.4002C250.555 1.4502 250.605 1.4002 250.605 1.4002ZM264.346 0.450195C259.482 0.450195 254.868 0.750196 250.505 1.4002H250.404C250.454 1.4002 250.454 1.4002 250.505 1.4002C245.289 2.3502 244.186 5.30019 244.186 5.30019C242.831 8.00019 245.439 15.4002 250.655 24.2002C252.059 24.0002 260.986 22.8002 270.515 23.0002C280.044 23.2002 285.56 24.4002 287.967 25.8502C290.375 27.3002 289.673 30.1502 289.372 30.9002C291.127 27.7502 294.938 20.3002 296.042 15.8002C297.195 11.3002 296.192 9.35019 295.992 8.85019C294.938 6.30019 292.932 5.15019 292.431 4.85019C287.265 2.30019 278.89 1.30019 273.424 0.850193C270.615 0.600193 267.656 0.450195 264.647 0.450195H264.346Z" fill="#D9D9D9"/>
</mask>
<g mask="url(#mask0_227_3809)">
<path d="M242.731 0.4501L297.195 0.350098L297.245 30.9001L242.831 31.0501L242.731 0.4501Z" fill="url(#paint0_linear_227_3809)"/>
</g>
<mask id="mask1_227_3809" style="mask-type:alpha" maskUnits="userSpaceOnUse" x="224" y="1" width="75" height="73">
<path d="M250.555 1.4502C250.505 1.4502 250.454 1.45019 250.404 1.50019C235.71 3.50019 229.341 8.00019 226.833 10.5002C226.833 10.5002 223.874 13.2502 224.025 17.6002C224.225 23.2502 227.686 31.1002 229.24 34.3002C232.55 40.9502 237.164 47.7002 238.518 49.5002C241.076 53.0002 245.54 58.4002 250.103 62.6502C253.614 65.8502 258.428 69.9502 262.39 72.0002C264.647 73.1502 267.305 73.2002 267.556 73.2002C268.158 73.2002 271.518 73.0502 274.577 70.3502C278.288 67.0002 281.949 60.6002 284.457 56.3002C288.318 49.7502 291.528 42.0502 293.133 37.9002C294.337 34.8002 297.647 25.2002 298.599 18.1502C299.151 14.2502 298.048 11.3002 297.647 10.4002C297.045 9.0502 296.343 8.0002 295.54 7.1502C295.139 6.7502 294.537 6.20019 293.935 5.80019C293.233 5.30019 292.531 5.00019 292.531 5.00019C293.033 5.25019 295.039 6.40019 296.092 9.00019C296.292 9.50019 297.245 11.4502 296.142 15.9502C294.989 20.4502 291.277 27.8502 289.472 31.0002C289.472 31.0002 289.472 31.0002 289.472 31.0502C289.021 31.8502 278.79 49.8502 273.825 49.8002C268.91 49.7502 258.127 35.4002 255.469 31.6002C253.714 29.1002 252.109 26.7002 250.755 24.3502C245.54 15.6002 242.982 8.20019 244.336 5.50019C244.186 5.30019 245.289 2.4002 250.555 1.4502Z" fill="#D9D9D9"/>
</mask>
<g mask="url(#mask1_227_3809)">
<path d="M254.767 -35.5L334.457 30.85L268.208 110L188.468 43.65L254.767 -35.5Z" fill="url(#paint1_linear_227_3809)"/>
</g>
<path d="M50.3015 82.4502H42.5281V112.2H50.3015V82.4502Z" fill="#034C2D"/>
<path d="M94.0834 111.8C92.8798 111.4 91.9269 110.65 91.2749 109.65C90.0212 107.65 89.8707 105.25 89.8707 102.05V89.5H85.0562V82.45H89.8707V75.25H97.6943V82.45H104.866V89.5H97.6943V103C97.6943 103.85 97.7444 104.45 97.7946 104.8C97.8949 105.15 97.945 105.25 97.945 105.25C97.945 105.25 97.9952 105.35 98.1958 105.35C98.4465 105.45 98.8979 105.5 99.6 105.5C100.001 105.5 100.854 105.4 101.506 105.3C102.158 105.2 102.76 105.1 102.76 105.1L104.214 104.8L104.966 111.2L103.913 111.55C103.813 111.55 101.305 112.4 98.2961 112.4C96.6411 112.4 95.287 112.25 94.0834 111.8Z" fill="#034C2D"/>
<path d="M121.115 112.6C118.858 112.6 116.952 112.4 115.247 111.95C113.542 111.45 112.088 110.65 110.934 109.4C108.627 106.9 107.925 103.05 107.925 97.3999C107.925 93.1499 108.376 89.9499 109.53 87.4999C110.683 85.0999 112.74 83.4999 115.297 82.7999C117.002 82.2999 118.908 82.1499 121.165 82.1499C126.03 82.1499 130.643 83.2999 130.694 83.2999L131.847 83.5499L130.844 90.5499L129.44 90.2499C129.44 90.2499 129.239 90.1999 128.888 90.0999C128.487 90.0499 127.985 89.9499 127.334 89.8499C125.979 89.6499 124.224 89.4999 122.419 89.4999C120.513 89.4999 119.159 89.5999 118.256 89.8999C117.353 90.1999 117.002 90.4999 116.651 91.0499C116.401 91.4499 116.2 91.9999 116.1 92.8499C115.949 93.9499 115.849 95.4499 115.849 97.3499C115.849 99.4999 115.949 101.1 116.15 102.25C116.401 103.4 116.752 103.95 117.203 104.35C117.504 104.65 117.955 104.85 118.607 105C119.51 105.25 120.764 105.3 122.419 105.3C125.127 105.3 127.735 104.85 128.838 104.65C129.239 104.6 129.44 104.55 129.44 104.55L130.894 104.25L131.897 111.05L130.844 111.4C130.643 111.4 127.033 112.6 121.115 112.6Z" fill="#034C2D"/>
<path d="M207.625 88.4499C207.124 86.1999 206.021 84.3999 204.165 83.3999C202.359 82.3999 200.053 82.1499 197.194 82.1499C195.439 82.1499 193.583 82.3499 193.583 82.3499L193.232 82.3999L189.621 85.1999H189.571C189.521 85.2499 189.521 85.2499 189.421 85.2999C188.167 84.0499 187.013 83.1999 185.659 82.7499C184.355 82.2999 183.001 82.1999 181.346 82.1999H181.146C179.541 82.1999 177.585 82.3999 177.585 82.3999L177.334 82.4499L174.225 84.8499C174.074 84.9499 174.024 84.9999 173.924 85.0499C173.673 85.1499 173.623 84.9999 173.573 84.8999L173.322 82.5499H166.853V112.3H174.676V89.8999C175.83 89.6999 177.535 89.4999 179.24 89.4999C180.393 89.4999 181.296 89.5499 181.898 89.6499C182.349 89.7499 182.6 89.8999 182.801 89.9999C183.001 90.1999 183.202 90.4499 183.402 91.1499C183.553 91.8499 183.653 92.8999 183.653 94.3999V112.35H191.477V92.3999C191.477 91.5499 191.427 90.7499 191.226 89.8999C192.48 89.7499 194.235 89.5999 195.89 89.5999C197.043 89.5999 197.946 89.6499 198.548 89.7999C198.999 89.8999 199.3 89.9999 199.451 90.0999C199.701 90.2999 199.902 90.4999 200.053 91.1999C200.203 91.8499 200.303 92.9499 200.303 94.4499V112.3H208.127V93.8999C208.127 91.6999 207.976 89.8999 207.625 88.4499Z" fill="#034C2D"/>
<path d="M77.4834 83.5501C75.3269 82.4501 72.6187 82.1001 69.1583 82.1001C66.2997 82.1001 63.7922 82.3501 61.736 83.2001C59.6296 84.0501 57.9245 85.6001 56.9716 87.9501C56.0689 90.3501 55.6175 93.8001 55.5674 97.3501C55.5674 100.4 55.8683 102.85 56.5202 104.9C57.423 107.95 59.1783 110.05 61.5354 111.15C63.8925 112.25 66.6508 112.55 69.8103 112.55C75.6278 112.55 79.8906 111 80.0411 110.95L81.0943 110.6L80.0411 103.95L78.687 104.2C75.7783 104.8 73.4212 105.3 70.4121 105.3C69.3589 105.3 68.1553 105.3 67.1021 105.1C66.049 104.85 65.1964 104.5 64.6949 103.85C63.9426 102.95 63.5916 101.15 63.5916 99.5001V98.8501C63.6417 98.8001 63.6417 98.7001 63.742 98.7001V98.6501C63.7922 98.6501 63.8423 98.6501 63.8925 98.6501C63.9928 98.7001 64.0931 98.7501 64.1934 98.8001L65.5976 100.2L65.8483 100.4L66.1493 100.45C66.2496 100.45 68.1051 100.85 71.8665 100.85C75.8284 100.8 79.2387 100.45 80.8435 100.4L82.0471 100.35L82.0973 99.1501C82.1976 97.2001 82.2477 96.2501 82.2477 95.2001C82.2477 92.8001 82.0973 90.7501 81.6459 89.0501C81.0441 86.6001 79.6399 84.6001 77.4834 83.5501ZM70.9136 93.9001C69.8604 93.9001 69.1583 93.9001 69.1583 93.9001H69.1082H69.058C69.058 93.9001 68.5064 93.9001 67.6036 93.9001C66.5505 93.9001 65.0961 93.8501 63.6417 93.7001C63.6919 92.8001 63.742 92.1001 63.8423 91.5501C63.9426 90.9501 64.0931 90.5501 64.2435 90.3001C64.4441 89.9501 64.6447 89.7501 65.4973 89.5001C66.2997 89.2501 67.5535 89.1501 69.4091 89.1501C70.6127 89.1501 71.5154 89.2001 72.1674 89.3501C72.6689 89.4501 72.9698 89.6001 73.1704 89.7501C73.4713 90.0001 73.7221 90.3001 73.9227 91.1501C74.0731 91.7501 74.1734 92.6501 74.2236 93.8001C73.1203 93.9001 71.9166 93.9001 70.9136 93.9001Z" fill="#034C2D"/>
<path d="M160.333 86.3001C159.38 84.6001 157.876 83.5001 155.97 82.9001C154.064 82.3001 151.757 82.1001 148.899 82.1001C146.341 82.1001 144.234 82.2501 142.479 82.7001C141.125 83.0501 139.972 83.5501 139.019 84.3501C137.564 85.5501 136.712 87.2501 136.26 89.4001C135.809 91.5001 135.659 94.1001 135.659 97.3501C135.659 100.25 135.759 102.6 136.11 104.6C136.361 106.1 136.762 107.35 137.414 108.4C138.367 110.1 139.871 111.2 141.777 111.8C143.683 112.4 145.94 112.6 148.848 112.6C151.406 112.6 153.512 112.45 155.318 112C156.622 111.65 157.825 111.1 158.728 110.3C160.182 109.15 161.035 107.4 161.486 105.3C161.938 103.2 162.038 100.6 162.038 97.3501C162.038 94.4501 161.938 92.1001 161.587 90.1001C161.386 88.6001 160.985 87.3501 160.333 86.3001ZM153.964 102.25C153.863 103.15 153.713 103.75 153.512 104.15C153.212 104.75 153.011 104.9 152.359 105.15C151.707 105.4 150.503 105.45 148.848 105.45C147.344 105.45 146.291 105.4 145.589 105.2C145.037 105.1 144.786 104.9 144.586 104.7C144.285 104.4 143.984 103.85 143.783 102.6C143.633 101.4 143.532 99.6501 143.532 97.3001C143.532 95.2001 143.583 93.5501 143.733 92.4001C143.833 91.5001 144.034 90.9001 144.184 90.5001C144.485 89.9001 144.686 89.7501 145.338 89.5001C146.04 89.2501 147.143 89.1501 148.848 89.1501C150.303 89.1501 151.406 89.2001 152.108 89.4001C152.66 89.5501 152.911 89.7001 153.111 89.9001C153.412 90.2001 153.713 90.7501 153.863 91.9501C154.064 93.1501 154.114 94.9001 154.114 97.3001C154.164 99.4501 154.114 101.1 153.964 102.25Z" fill="#034C2D"/>
<path d="M298.048 88.4499C297.546 86.1999 296.393 84.3999 294.587 83.3999C292.782 82.3999 290.525 82.1499 287.616 82.1499C286.513 82.1499 284.457 82.3999 284.407 82.3999L284.056 82.4499L280.946 84.8499C280.796 84.9499 280.746 84.9999 280.645 85.0499C280.445 85.1499 280.294 84.9999 280.294 84.8999L280.044 82.4999H273.474V112.25H281.297V89.9499C282.651 89.6999 284.557 89.4999 286.363 89.4999C287.516 89.4999 288.419 89.5499 289.021 89.6499C289.472 89.7499 289.773 89.8999 289.923 89.9999C290.174 90.1999 290.375 90.4499 290.525 91.1499C290.726 91.8499 290.776 92.8999 290.776 94.3999V112.35H298.599V93.9499C298.499 91.6999 298.399 89.8999 298.048 88.4499Z" fill="#034C2D"/>
<path d="M330.144 110.6C330.094 110.55 330.044 110.5 329.994 110.45C329.944 110.4 329.944 110.35 329.894 110.35C321.067 102.6 318.71 96.0998 318.71 96.0998L323.926 90.2498L328.941 84.5498L331.498 81.6998L329.593 81.7498H322.271L312.291 92.7998C312.09 92.9998 311.889 93.2498 311.689 93.3498C311.388 93.5498 310.987 93.4998 310.987 93.4998V70.7998H303.163V112.2H310.987V99.0498C310.987 99.0498 311.589 98.9998 311.789 99.2998C311.789 99.2998 316.002 107.6 321.92 112.15H329.041V112.2H332C331.398 111.65 330.746 111.05 330.144 110.6Z" fill="#034C2D"/>
<path d="M267.756 86.9999C267.155 85.6499 266.202 84.5499 264.998 83.8499C262.792 82.4999 259.833 82.1499 256.071 82.1499C249.401 82.1499 244.587 83.6499 244.537 83.6499L243.433 83.9999L244.587 90.9499L246.041 90.5999C246.041 90.5999 246.292 90.5499 246.793 90.3999C248.298 90.0499 251.808 89.3499 255.319 89.3499C257.375 89.2999 258.779 89.4999 259.482 89.8499C260.033 90.0999 260.284 90.3499 260.485 90.7499C260.685 91.1499 260.785 91.7499 260.785 92.5499L252.009 92.6499C250.304 92.6499 248.799 92.7999 247.546 93.1999C245.64 93.6999 244.085 94.7999 243.283 96.4499C242.43 98.0999 242.179 100.05 242.129 102.55C242.129 104.35 242.28 105.85 242.681 107.2C243.233 109.2 244.486 110.75 246.342 111.55C248.198 112.35 250.454 112.6 253.413 112.65C255.219 112.65 257.476 112.4 257.476 112.4L257.927 112.35L261.036 110C261.187 109.9 261.237 109.85 261.337 109.8C261.538 109.75 261.638 109.85 261.688 109.95L261.939 112.3H268.659V92.0499C268.609 89.9999 268.358 88.3999 267.756 86.9999ZM260.785 104.6C259.281 104.9 256.372 105.4 253.915 105.4C253.012 105.4 252.26 105.35 251.708 105.3C251.257 105.25 251.006 105.15 250.805 105.1C250.555 104.95 250.505 104.85 250.304 104.55C250.153 104.2 250.003 103.55 250.003 102.5C250.003 101.4 250.153 100.65 250.304 100.25C250.404 99.9499 250.505 99.8499 250.555 99.7999C250.705 99.6999 250.956 99.5999 251.608 99.4999C252.21 99.4999 253.112 99.4999 254.166 99.4999L260.685 99.3499V104.6H260.785Z" fill="#034C2D"/>
<path d="M232.55 82.95C230.996 82.4 229.24 82.1 227.034 82.1C226.231 82.1 225.429 82.2 224.827 82.3C224.576 82.35 224.376 82.4 224.225 82.45L221.216 84.85C221.066 84.95 220.966 85 220.915 85C220.715 85.1 220.614 85 220.564 84.9V70.75H212.791V110.55L213.694 110.85C217.505 112.15 221.668 112.55 224.727 112.55C227.385 112.55 229.541 112.3 231.397 111.75C234.155 110.95 236.161 109.2 237.164 106.7C238.217 104.25 238.468 101.15 238.468 97.15C238.468 92.15 238.017 88.45 236.262 85.8C235.409 84.5 234.105 83.55 232.55 82.95ZM230.344 101.8C230.193 102.65 230.043 103.3 229.842 103.7C229.541 104.4 229.24 104.6 228.639 104.9C228.037 105.15 227.034 105.3 225.63 105.3C223.975 105.3 222.47 105.15 221.367 105C221.116 104.95 220.865 104.9 220.665 104.85V90C221.818 89.7 223.874 89.3 225.78 89.3C226.934 89.3 227.836 89.4 228.438 89.65C228.839 89.8 229.19 90 229.391 90.25C229.742 90.65 230.043 91.35 230.294 92.45C230.494 93.6 230.595 95.2 230.595 97.2C230.645 99.15 230.544 100.7 230.344 101.8Z" fill="#034C2D"/>
<path d="M13.6411 111.55L13.6912 111.65L13.7915 111.7C13.8417 111.7 16.3994 112.35 19.91 112.35C21.6653 112.35 23.6713 112.2 25.7275 111.7L25.8779 111.65L25.9281 111.5C34.8048 98.0001 37.9142 85.1001 39.0175 77.6501C39.5692 74.6001 39.6695 71.1501 39.6695 71.1001L30.3915 72.4501C29.6894 77.4501 27.232 91.8501 20.3112 103.6L20.0103 104.1L19.7094 103.6C14.9952 95.5501 12.3873 87.4001 10.9329 81.3001C10.2308 78.3501 9.629 74.3001 9.37825 72.4001L0 71.1501C0.0501511 72.8001 0.702116 91.7001 13.6411 111.55Z" fill="#034C2D"/>
</g>
<defs>
<linearGradient id="paint0_linear_227_3809" x1="243.856" y1="15.7335" x2="296.603" y2="15.596" gradientUnits="userSpaceOnUse">
<stop stop-color="#034C2D"/>
<stop offset="0.2622" stop-color="#286A31"/>
<stop offset="0.8446" stop-color="#87B73D"/>
<stop offset="0.9121" stop-color="#92C03E"/>
<stop offset="1" stop-color="#92C03E"/>
</linearGradient>
<linearGradient id="paint1_linear_227_3809" x1="227.622" y1="9.14828" x2="285.296" y2="57.4327" gradientUnits="userSpaceOnUse">
<stop stop-color="#92C03E"/>
<stop offset="0.0989011" stop-color="#92C03E"/>
<stop offset="0.4551" stop-color="#548E37"/>
<stop offset="0.8232" stop-color="#1A5F30"/>
<stop offset="1" stop-color="#034C2D"/>
</linearGradient>
<clipPath id="clip0_227_3809">
<rect width="332" height="113" fill="white"/>
</clipPath>
</defs>
</svg>
