<svg width="32" height="32" viewBox="0 0 32 32" fill="none" xmlns="http://www.w3.org/2000/svg">
<rect width="32" height="32" rx="8" fill="#E9E9E9"/>
<path d="M17.5 8.60999V11.54C17.5 12.21 16.96 12.75 16.29 12.75H7.21C6.53 12.75 6 12.19 6 11.52C6.01 10.39 6.46 9.35999 7.21 8.60999C7.96 7.85999 9 7.39999 10.14 7.39999H16.29C16.96 7.39999 17.5 7.93999 17.5 8.60999Z" fill="#3B3B3B"/>
<path d="M25.3885 6.60622C24.5905 5.80824 23.809 5.78768 22.9905 6.60622L22.4927 7.10392C22.4516 7.14505 22.4352 7.21087 22.4516 7.26845C22.7642 8.35847 23.6362 9.23048 24.7263 9.54309C24.7427 9.5472 24.7592 9.55131 24.7756 9.55131C24.8209 9.55131 24.862 9.53486 24.8949 9.50195L25.3885 9.00425C25.7957 8.60115 25.9931 8.21039 25.9931 7.81552C25.9972 7.4083 25.7998 7.01343 25.3885 6.60622Z" fill="#3B3B3B"/>
<path d="M23.9837 9.9174C23.8644 9.85981 23.7492 9.80223 23.6382 9.73641C23.5477 9.68294 23.4613 9.62536 23.3749 9.56366C23.305 9.51841 23.2227 9.4526 23.1446 9.38679C23.1364 9.38267 23.1076 9.35799 23.0747 9.32509C22.9389 9.20992 22.7867 9.06184 22.651 8.89731C22.6387 8.88908 22.6181 8.86029 22.5893 8.82327C22.5482 8.77391 22.4782 8.69165 22.4165 8.59704C22.3672 8.53534 22.3096 8.44485 22.2561 8.35436C22.1903 8.2433 22.1327 8.13224 22.0751 8.01707C21.9996 7.85528 21.7873 7.80722 21.661 7.93346L19.3481 10.2465C19.2946 10.2999 19.2452 10.4028 19.2329 10.4727L19.0108 12.0481C18.9696 12.3278 19.0478 12.591 19.2205 12.7679C19.3686 12.9119 19.5743 12.99 19.7964 12.99C19.8458 12.99 19.8951 12.9859 19.9445 12.9777L21.524 12.7555C21.598 12.7432 21.7008 12.6939 21.7502 12.6404L24.067 10.3236C24.1907 10.1998 24.1442 9.98697 23.9837 9.9174Z" fill="#3B3B3B"/>
<path d="M6 15.46V20.46C6 22.75 7.85 24.6 10.14 24.6H21.85C24.14 24.6 26 22.74 26 20.45V15.46C26 14.79 25.46 14.25 24.79 14.25H7.21C6.54 14.25 6 14.79 6 15.46ZM12 21.25H10C9.59 21.25 9.25 20.91 9.25 20.5C9.25 20.09 9.59 19.75 10 19.75H12C12.41 19.75 12.75 20.09 12.75 20.5C12.75 20.91 12.41 21.25 12 21.25ZM18.5 21.25H14.5C14.09 21.25 13.75 20.91 13.75 20.5C13.75 20.09 14.09 19.75 14.5 19.75H18.5C18.91 19.75 19.25 20.09 19.25 20.5C19.25 20.91 18.91 21.25 18.5 21.25Z" fill="#3B3B3B"/>
</svg>
