<svg width="32" height="32" viewBox="0 0 32 32" fill="none" xmlns="http://www.w3.org/2000/svg">
<rect width="32" height="32" rx="8" fill="url(#paint0_linear_10452_18537)"/>
<path d="M24.7997 12.4528C24.7997 13.0336 24.3245 13.5088 23.7437 13.5088H8.25571C7.67491 13.5088 7.19971 13.0336 7.19971 12.4528V12.444C7.19971 10.4288 8.82771 8.80078 10.8429 8.80078H21.1477C23.1629 8.80078 24.7997 10.4376 24.7997 12.4528Z" fill="white"/>
<path d="M7.19971 15.8851V20.2939C7.19971 22.3091 8.82771 23.9371 10.8429 23.9371H21.1477C23.1629 23.9371 24.7997 22.3003 24.7997 20.2851V15.8851C24.7997 15.3043 24.3245 14.8291 23.7437 14.8291H8.25571C7.67491 14.8291 7.19971 15.3043 7.19971 15.8851ZM12.4797 20.9891H10.7197C10.3589 20.9891 10.0597 20.6899 10.0597 20.3291C10.0597 19.9683 10.3589 19.6691 10.7197 19.6691H12.4797C12.8405 19.6691 13.1397 19.9683 13.1397 20.3291C13.1397 20.6899 12.8405 20.9891 12.4797 20.9891ZM18.1997 20.9891H14.6797C14.3189 20.9891 14.0197 20.6899 14.0197 20.3291C14.0197 19.9683 14.3189 19.6691 14.6797 19.6691H18.1997C18.5605 19.6691 18.8597 19.9683 18.8597 20.3291C18.8597 20.6899 18.5605 20.9891 18.1997 20.9891Z" fill="white"/>
<defs>
<linearGradient id="paint0_linear_10452_18537" x1="32" y1="16" x2="3.25241e-09" y2="16" gradientUnits="userSpaceOnUse">
<stop stop-color="#008047"/>
<stop offset="1" stop-color="#5FB621"/>
</linearGradient>
</defs>
</svg>
