<svg width="32" height="32" viewBox="0 0 32 32" fill="none" xmlns="http://www.w3.org/2000/svg">
<rect width="32" height="32" rx="8" fill="url(#paint0_linear_10452_8959)"/>
<g clip-path="url(#clip0_10452_8959)">
<path d="M24.7995 10.9426C24.7871 9.75556 24.2812 8.83499 23.479 8.36258C23.405 8.32625 23.3309 8.27779 23.2445 8.24146C23.3062 8.27779 23.8616 8.55639 24.1331 9.2226C24.2565 9.52542 24.3552 10.0342 24.1701 10.773C24.1701 10.773 24.1207 10.9426 24.0961 11.0395V11.0516C24.0837 11.0759 24.0837 11.1122 24.0714 11.1485C24.0714 11.1607 24.0714 11.1607 24.059 11.1728C23.6888 12.2993 23.0224 13.6922 22.1462 15.1337C21.2947 16.5267 20.3815 17.7137 19.5547 18.5616C19.5547 18.5616 19.5547 18.5616 19.5423 18.5737C19.1721 18.9371 18.9006 19.0582 18.7278 19.0946C18.5181 19.1309 18.3946 19.0946 18.3946 19.0946C18.1972 19.0582 17.9504 18.8887 17.7159 18.6949C16.6669 17.8954 15.3465 16.454 14.0877 14.6976C12.0885 11.8511 10.9532 9.17415 11.3728 8.33836C11.3728 8.33836 11.6566 7.6237 12.9524 7.39355C9.29954 7.87807 7.70759 8.95611 7.07821 9.57387L7.05353 9.5981C6.5599 10.0947 6.27607 10.773 6.41182 11.7905C6.41182 11.7905 6.42416 11.8511 6.44884 11.9722C6.46118 12.0328 6.47352 12.1055 6.48586 12.1781C6.68331 13.1472 7.13992 14.3827 7.79397 15.6545C7.96674 15.9816 8.13951 16.2844 8.31228 16.5872C8.78123 17.4109 9.31188 18.2346 9.91658 19.0461C11.2864 20.8994 12.829 22.4377 14.3716 23.5763C14.495 23.6733 14.6184 23.7702 14.7541 23.8671C15.0503 24.0851 15.3465 24.2668 15.618 24.4242C15.8401 24.5575 16.0869 24.6665 16.3461 24.7271C16.4078 24.7392 16.4695 24.7634 16.5435 24.7634C16.7163 24.7997 16.8891 24.8119 17.0742 24.7997C17.8393 24.7876 18.5181 24.4485 18.987 23.9155C19.0117 23.8913 19.061 23.8428 19.1227 23.7702C19.3449 23.5158 19.6657 23.1282 20.0483 22.5589C21.0602 21.1538 22.0105 19.4701 22.8373 17.6047C23.7629 15.5092 24.3922 13.45 24.7378 11.6088C24.7871 11.3908 24.7995 11.1728 24.7995 10.9426Z" fill="white"/>
<path d="M23.6526 8.98079C23.3441 8.43571 22.616 8.06021 22.4308 7.98753C21.1968 7.46668 19.7159 7.394 18.5559 7.2971C17.8278 7.23653 17.075 7.2002 16.3099 7.2002C15.5324 7.2002 14.6809 7.21231 13.9898 7.2971C13.9281 7.30921 12.4472 7.52724 11.9289 8.31458C11.6574 8.72642 11.8672 9.41685 12.0029 9.82869C12.4966 11.3065 13.5332 12.8569 13.5579 12.8569C14.0392 12.7842 14.6068 12.7479 15.1745 12.7116C15.6435 12.6873 16.1618 12.6631 16.7541 12.651C18.6052 12.6268 20.2465 12.7963 21.3572 13.0749C21.567 13.1234 21.7644 13.184 21.9249 13.2566C22.1347 13.3656 22.2828 13.511 22.3691 13.6806C22.3815 13.7048 24.43 10.3253 23.6526 8.98079Z" fill="white"/>
</g>
<defs>
<linearGradient id="paint0_linear_10452_8959" x1="32" y1="16" x2="3.25241e-09" y2="16" gradientUnits="userSpaceOnUse">
<stop stop-color="#008047"/>
<stop offset="1" stop-color="#5FB621"/>
</linearGradient>
<clipPath id="clip0_10452_8959">
<rect width="18.4" height="17.6" fill="white" transform="translate(6.3999 7.2002)"/>
</clipPath>
</defs>
</svg>
