<svg width="32" height="32" viewBox="0 0 32 32" fill="none" xmlns="http://www.w3.org/2000/svg">
<rect width="32" height="32" rx="8" fill="url(#paint0_linear_10452_2182)"/>
<g clip-path="url(#clip0_10452_2182)">
<path d="M17.5999 21.6004C17.5999 21.7065 17.5578 21.8083 17.4827 21.8833C17.4077 21.9583 17.306 22.0004 17.1999 22.0004H8.3999C8.29382 22.0004 8.19207 21.9583 8.11706 21.8833C8.04205 21.8083 7.9999 21.7065 7.9999 21.6004V9.20044C7.9999 9.09436 8.04205 8.99261 8.11706 8.9176C8.19207 8.84258 8.29382 8.80044 8.3999 8.80044H13.3983C13.4248 8.80055 13.4511 8.79541 13.4756 8.78531C13.5001 8.77522 13.5223 8.76037 13.5411 8.74163C13.5598 8.72289 13.5747 8.70062 13.5848 8.67612C13.5949 8.65161 13.6 8.62535 13.5999 8.59884C13.5359 7.94531 13.6332 7.28607 13.8831 6.67884C13.8968 6.6484 13.9025 6.61501 13.8997 6.58176C13.897 6.54851 13.8859 6.5165 13.8674 6.48871C13.849 6.46092 13.8238 6.43825 13.7942 6.42281C13.7647 6.40738 13.7317 6.39968 13.6983 6.40044H8.7999C8.16338 6.40044 7.55293 6.6533 7.10285 7.10339C6.65276 7.55347 6.3999 8.16392 6.3999 8.80044V23.2004C6.3999 23.837 6.65276 24.4474 7.10285 24.8975C7.55293 25.3476 8.16338 25.6004 8.7999 25.6004H16.7999C17.4364 25.6004 18.0469 25.3476 18.497 24.8975C18.947 24.4474 19.1999 23.837 19.1999 23.2004V16.2004C19.1999 16.1474 19.1788 16.0965 19.1413 16.059C19.1038 16.0215 19.0529 16.0004 18.9999 16.0004H17.7999C17.7469 16.0004 17.696 16.0215 17.6585 16.059C17.621 16.0965 17.5999 16.1474 17.5999 16.2004V21.6004Z" fill="white"/>
<path d="M24.1998 6.40039H16.1998C15.8286 6.40081 15.4728 6.54845 15.2103 6.81091C14.9479 7.07337 14.8002 7.42922 14.7998 7.80039V13.4004C14.8002 13.7716 14.9479 14.1274 15.2103 14.3899C15.4728 14.6523 15.8286 14.8 16.1998 14.8004H24.1998C24.571 14.8 24.9268 14.6523 25.1893 14.3899C25.4517 14.1274 25.5994 13.7716 25.5998 13.4004V7.80039C25.5994 7.42922 25.4517 7.07337 25.1893 6.81091C24.9268 6.54845 24.571 6.40081 24.1998 6.40039V6.40039ZM24.1998 13.6004H16.1998C16.1468 13.6004 16.0959 13.5793 16.0584 13.5418C16.0209 13.5043 15.9998 13.4534 15.9998 13.4004V10.8004H24.3998V13.4004C24.3998 13.4534 24.3787 13.5043 24.3412 13.5418C24.3037 13.5793 24.2528 13.6004 24.1998 13.6004ZM16.1998 7.60039H24.1998C24.2528 7.60039 24.3037 7.62146 24.3412 7.65897C24.3787 7.69648 24.3998 7.74735 24.3998 7.80039V8.80039H15.9998V7.80039C15.9998 7.74735 16.0209 7.69648 16.0584 7.65897C16.0959 7.62146 16.1468 7.60039 16.1998 7.60039Z" fill="white"/>
<path d="M23.2 12.2006C23.2 12.0415 23.1368 11.8888 23.0243 11.7763C22.9117 11.6638 22.7591 11.6006 22.6 11.6006H21.6C21.4409 11.6006 21.2883 11.6638 21.1757 11.7763C21.0632 11.8888 21 12.0415 21 12.2006C21 12.3597 21.0632 12.5123 21.1757 12.6249C21.2883 12.7374 21.4409 12.8006 21.6 12.8006H22.6C22.7591 12.8006 22.9117 12.7374 23.0243 12.6249C23.1368 12.5123 23.2 12.3597 23.2 12.2006Z" fill="white"/>
</g>
<defs>
<linearGradient id="paint0_linear_10452_2182" x1="32" y1="16" x2="3.25241e-09" y2="16" gradientUnits="userSpaceOnUse">
<stop stop-color="#008047"/>
<stop offset="1" stop-color="#5FB621"/>
</linearGradient>
<clipPath id="clip0_10452_2182">
<rect width="19.2" height="19.2" fill="white" transform="translate(6.3999 6.40039)"/>
</clipPath>
</defs>
</svg>
