<svg width="88" height="88" viewBox="0 0 88 88" fill="none" xmlns="http://www.w3.org/2000/svg">
<rect width="88" height="88" rx="44" fill="url(#paint0_linear_6304_82860)"/>
<path fill-rule="evenodd" clip-rule="evenodd" d="M53.0668 34.394C53.1335 34.5105 53.2502 34.5938 53.4002 34.5938C57.4002 34.5938 60.6668 37.8568 60.6668 41.8524V51.7414C60.6668 55.737 57.4002 59 53.4002 59H34.6002C30.5835 59 27.3335 55.737 27.3335 51.7414V41.8524C27.3335 37.8568 30.5835 34.5938 34.6002 34.5938C34.7335 34.5938 34.8668 34.5272 34.9168 34.394L35.0168 34.1942C35.0743 34.0733 35.1333 33.9491 35.1931 33.823C35.6195 32.9249 36.0912 31.9313 36.3835 31.3474C37.1502 29.8491 38.4502 29.0166 40.0668 29H47.9168C49.5335 29.0166 50.8502 29.8491 51.6168 31.3474C51.8793 31.8718 52.2793 32.7167 52.6648 33.5309C52.7443 33.6988 52.8232 33.8655 52.9002 34.0277L53.0668 34.394ZM51.8502 40.7869C51.8502 41.6193 52.5168 42.2852 53.3502 42.2852C54.1835 42.2852 54.8668 41.6193 54.8668 40.7869C54.8668 39.9545 54.1835 39.2719 53.3502 39.2719C52.5168 39.2719 51.8502 39.9545 51.8502 40.7869ZM41.1168 43.3674C41.9002 42.5849 42.9168 42.1687 44.0002 42.1687C45.0835 42.1687 46.1002 42.5849 46.8668 43.3507C47.6335 44.1165 48.0502 45.1321 48.0502 46.2142C48.0335 48.4451 46.2335 50.2597 44.0002 50.2597C42.9168 50.2597 41.9002 49.8435 41.1335 49.0777C40.3668 48.3119 39.9502 47.2963 39.9502 46.2142V46.1976C39.9335 45.1487 40.3502 44.1332 41.1168 43.3674ZM48.6168 50.8424C47.4335 52.0244 45.8002 52.7569 44.0002 52.7569C42.2502 52.7569 40.6168 52.0744 39.3668 50.8424C38.1335 49.5938 37.4502 47.9623 37.4502 46.2142C37.4335 44.4828 38.1168 42.8513 39.3502 41.6027C40.6002 40.3541 42.2502 39.6715 44.0002 39.6715C45.7502 39.6715 47.4002 40.3541 48.6335 41.586C49.8668 42.8346 50.5502 44.4828 50.5502 46.2142C50.5335 48.0289 49.8002 49.6604 48.6168 50.8424Z" fill="white"/>
<defs>
<linearGradient id="paint0_linear_6304_82860" x1="88" y1="44" x2="8.94413e-09" y2="44" gradientUnits="userSpaceOnUse">
<stop stop-color="#008047"/>
<stop offset="1" stop-color="#5FB621"/>
</linearGradient>
</defs>
</svg>
