<svg width="24" height="24" viewBox="0 0 24 24" fill="none" xmlns="http://www.w3.org/2000/svg">
<path d="M11.9981 22.75C6.79813 22.75 2.57812 18.52 2.57812 13.33C2.57812 8.14002 6.79813 3.90002 11.9981 3.90002C13.0681 3.90002 14.1081 4.05002 15.1081 4.36002C15.5081 4.48002 15.7281 4.90002 15.6081 5.30002C15.4881 5.70002 15.0681 5.92002 14.6681 5.80002C13.8181 5.54002 12.9181 5.40002 11.9981 5.40002C7.62813 5.40002 4.07812 8.95002 4.07812 13.32C4.07812 17.69 7.62813 21.24 11.9981 21.24C16.3681 21.24 19.9181 17.69 19.9181 13.32C19.9181 11.74 19.4581 10.22 18.5881 8.92002C18.3581 8.58002 18.4481 8.11002 18.7981 7.88002C19.1381 7.65002 19.6081 7.74002 19.8381 8.09002C20.8781 9.64002 21.4281 11.45 21.4281 13.33C21.4181 18.52 17.1981 22.75 11.9981 22.75Z" fill="#E6F6EC"/>
<path d="M16.1285 6.07003C15.9185 6.07003 15.7085 5.98003 15.5585 5.81003L12.6685 2.49003C12.3985 2.18003 12.4285 1.70003 12.7385 1.43003C13.0485 1.16003 13.5285 1.19003 13.7985 1.50003L16.6885 4.82003C16.9585 5.13003 16.9285 5.61003 16.6185 5.88003C16.4885 6.01003 16.3085 6.07003 16.1285 6.07003Z" fill="#E6F6EC"/>
<path d="M12.7602 8.53002C12.5302 8.53002 12.3002 8.42002 12.1502 8.22002C11.9102 7.89002 11.9802 7.42002 12.3102 7.17002L15.6802 4.71002C16.0102 4.46002 16.4802 4.54002 16.7302 4.87002C16.9802 5.20002 16.9002 5.67002 16.5702 5.92002L13.2002 8.39002C13.0702 8.49002 12.9202 8.53002 12.7602 8.53002Z" fill="#E6F6EC"/>
</svg>
