<svg width="25" height="24" viewBox="0 0 25 24" fill="none" xmlns="http://www.w3.org/2000/svg">
<path d="M7.75 7H17.25V5C17.25 3 16.5 2 14.25 2H10.75C8.5 2 7.75 3 7.75 5V7Z" stroke="#008047" stroke-width="1.5" stroke-miterlimit="10" stroke-linecap="round" stroke-linejoin="round"/>
<path d="M16.5 15V19C16.5 21 15.5 22 13.5 22H11.5C9.5 22 8.5 21 8.5 19V15H16.5Z" stroke="#008047" stroke-width="1.5" stroke-miterlimit="10" stroke-linecap="round" stroke-linejoin="round"/>
<path d="M21.5 10V15C21.5 17 20.5 18 18.5 18H16.5V15H8.5V18H6.5C4.5 18 3.5 17 3.5 15V10C3.5 8 4.5 7 6.5 7H18.5C20.5 7 21.5 8 21.5 10Z" stroke="#008047" stroke-width="1.5" stroke-miterlimit="10" stroke-linecap="round" stroke-linejoin="round"/>
<path d="M17.5 15H16.29H7.5" stroke="#008047" stroke-width="1.5" stroke-miterlimit="10" stroke-linecap="round" stroke-linejoin="round"/>
<path d="M7.5 11H10.5" stroke="#008047" stroke-width="1.5" stroke-miterlimit="10" stroke-linecap="round" stroke-linejoin="round"/>
</svg>
