<svg width="88" height="88" viewBox="0 0 88 88" fill="none" xmlns="http://www.w3.org/2000/svg">
<rect width="88" height="88" rx="44" fill="#5A5A5A"/>
<path fill-rule="evenodd" clip-rule="evenodd" d="M53.0663 34.394C53.133 34.5105 53.2497 34.5938 53.3997 34.5938C57.3997 34.5938 60.6663 37.8568 60.6663 41.8524V51.7414C60.6663 55.737 57.3997 59 53.3997 59H34.5997C30.583 59 27.333 55.737 27.333 51.7414V41.8524C27.333 37.8568 30.583 34.5938 34.5997 34.5938C34.733 34.5938 34.8663 34.5272 34.9163 34.394L35.0163 34.1942C35.0738 34.0733 35.1328 33.9491 35.1926 33.823C35.619 32.9249 36.0907 31.9313 36.383 31.3474C37.1497 29.8491 38.4497 29.0166 40.0663 29H47.9163C49.533 29.0166 50.8497 29.8491 51.6163 31.3474C51.8789 31.8718 52.2788 32.7167 52.6643 33.5309C52.7438 33.6988 52.8227 33.8655 52.8997 34.0277L53.0663 34.394ZM51.8497 40.7869C51.8497 41.6193 52.5163 42.2852 53.3497 42.2852C54.183 42.2852 54.8663 41.6193 54.8663 40.7869C54.8663 39.9545 54.183 39.2719 53.3497 39.2719C52.5163 39.2719 51.8497 39.9545 51.8497 40.7869ZM41.1163 43.3674C41.8997 42.5849 42.9163 42.1687 43.9997 42.1687C45.083 42.1687 46.0997 42.5849 46.8663 43.3507C47.633 44.1165 48.0497 45.1321 48.0497 46.2142C48.033 48.4451 46.233 50.2597 43.9997 50.2597C42.9163 50.2597 41.8997 49.8435 41.133 49.0777C40.3663 48.3119 39.9497 47.2963 39.9497 46.2142V46.1976C39.933 45.1487 40.3497 44.1332 41.1163 43.3674ZM48.6163 50.8424C47.433 52.0244 45.7997 52.7569 43.9997 52.7569C42.2497 52.7569 40.6163 52.0744 39.3663 50.8424C38.133 49.5938 37.4497 47.9623 37.4497 46.2142C37.433 44.4828 38.1163 42.8513 39.3497 41.6027C40.5997 40.3541 42.2497 39.6715 43.9997 39.6715C45.7497 39.6715 47.3997 40.3541 48.633 41.586C49.8663 42.8346 50.5497 44.4828 50.5497 46.2142C50.533 48.0289 49.7997 49.6604 48.6163 50.8424Z" fill="white"/>
</svg>
