<svg width="24" height="24" viewBox="0 0 24 24" fill="none" xmlns="http://www.w3.org/2000/svg">
<path fill-rule="evenodd" clip-rule="evenodd" d="M10.2888 3.86002L1.8188 18C1.64417 18.3024 1.55177 18.6453 1.55079 18.9945C1.54981 19.3438 1.64029 19.6872 1.81323 19.9905C1.98616 20.2939 2.23553 20.5468 2.53651 20.7239C2.83749 20.901 3.1796 20.9962 3.5288 21H20.4688C20.818 20.9962 21.1601 20.901 21.4611 20.7239C21.7621 20.5468 22.0114 20.2939 22.1844 19.9905C22.3573 19.6872 22.4478 19.3438 22.4468 18.9945C22.4458 18.6453 22.3534 18.3024 22.1788 18L13.7088 3.86002C13.5305 3.56613 13.2795 3.32314 12.98 3.15451C12.6805 2.98587 12.3425 2.89728 11.9988 2.89728C11.6551 2.89728 11.3171 2.98587 11.0176 3.15451C10.7181 3.32314 10.4671 3.56613 10.2888 3.86002ZM11.9986 8.09998C12.4957 8.09998 12.8986 8.50292 12.8986 8.99998V13C12.8986 13.497 12.4957 13.9 11.9986 13.9C11.5016 13.9 11.0986 13.497 11.0986 13V8.99998C11.0986 8.50292 11.5016 8.09998 11.9986 8.09998ZM11.9986 16.1C11.5016 16.1 11.0986 16.5029 11.0986 17C11.0986 17.497 11.5016 17.9 11.9986 17.9H12.0086C12.5057 17.9 12.9086 17.497 12.9086 17C12.9086 16.5029 12.5057 16.1 12.0086 16.1H11.9986Z" fill="white"/>
</svg>
