<svg width="20" height="20" viewBox="0 0 20 20" fill="none" xmlns="http://www.w3.org/2000/svg">
<path d="M12.4998 18.9587H7.49984C2.97484 18.9587 1.0415 17.0253 1.0415 12.5003V7.50033C1.0415 2.97533 2.97484 1.04199 7.49984 1.04199H11.6665C12.0082 1.04199 12.2915 1.32533 12.2915 1.66699C12.2915 2.00866 12.0082 2.29199 11.6665 2.29199H7.49984C3.65817 2.29199 2.2915 3.65866 2.2915 7.50033V12.5003C2.2915 16.342 3.65817 17.7087 7.49984 17.7087H12.4998C16.3415 17.7087 17.7082 16.342 17.7082 12.5003V8.33366C17.7082 7.99199 17.9915 7.70866 18.3332 7.70866C18.6748 7.70866 18.9582 7.99199 18.9582 8.33366V12.5003C18.9582 17.0253 17.0248 18.9587 12.4998 18.9587Z" fill="#008047"/>
<path d="M18.3332 8.95841H14.9998C12.1498 8.95841 11.0415 7.85007 11.0415 5.00007V1.66674C11.0415 1.41674 11.1915 1.18341 11.4248 1.09174C11.6582 0.991739 11.9248 1.05007 12.1082 1.22507L18.7748 7.89174C18.9498 8.06674 19.0082 8.34174 18.9082 8.57507C18.8082 8.8084 18.5832 8.95841 18.3332 8.95841ZM12.2915 3.17507V5.00007C12.2915 7.15007 12.8498 7.70841 14.9998 7.70841H16.8248L12.2915 3.17507Z" fill="#008047"/>
<path d="M10.8335 11.458H5.8335C5.49183 11.458 5.2085 11.1747 5.2085 10.833C5.2085 10.4913 5.49183 10.208 5.8335 10.208H10.8335C11.1752 10.208 11.4585 10.4913 11.4585 10.833C11.4585 11.1747 11.1752 11.458 10.8335 11.458Z" fill="#008047"/>
<path d="M9.16683 14.792H5.8335C5.49183 14.792 5.2085 14.5087 5.2085 14.167C5.2085 13.8253 5.49183 13.542 5.8335 13.542H9.16683C9.5085 13.542 9.79183 13.8253 9.79183 14.167C9.79183 14.5087 9.5085 14.792 9.16683 14.792Z" fill="#008047"/>
</svg>
