<svg width="32" height="32" viewBox="0 0 32 32" fill="none" xmlns="http://www.w3.org/2000/svg">
<rect width="32" height="32" rx="8" fill="url(#paint0_linear_10452_20725)"/>
<path d="M16 16C18.2091 16 20 14.2091 20 12C20 9.79086 18.2091 8 16 8C13.7909 8 12 9.79086 12 12C12 14.2091 13.7909 16 16 16Z" fill="white"/>
<path d="M16 18C11.992 18 8.72803 20.688 8.72803 24C8.72803 24.224 8.90403 24.4 9.12803 24.4H22.872C23.096 24.4 23.272 24.224 23.272 24C23.272 20.688 20.008 18 16 18Z" fill="white"/>
<defs>
<linearGradient id="paint0_linear_10452_20725" x1="32" y1="16" x2="3.25241e-09" y2="16" gradientUnits="userSpaceOnUse">
<stop stop-color="#008047"/>
<stop offset="1" stop-color="#5FB621"/>
</linearGradient>
</defs>
</svg>
