<svg width="24" height="24" viewBox="0 0 24 24" fill="none" xmlns="http://www.w3.org/2000/svg">
<g clip-path="url(#clip0_9670_130241)">
<path d="M10.239 3.95745L1.81704 18.0174C1.64352 18.3181 1.55172 18.659 1.55079 19.0062C1.54985 19.3534 1.63981 19.6948 1.81171 19.9964C1.98361 20.298 2.23147 20.5494 2.53064 20.7256C2.82982 20.9017 3.16989 20.9965 3.51704 21.0004H20.362C20.7092 20.9965 21.0493 20.9017 21.3484 20.7256C21.6476 20.5494 21.8955 20.298 22.0674 19.9964C22.2393 19.6948 22.3292 19.3534 22.3283 19.0062C22.3274 18.659 22.2356 18.3181 22.062 18.0174L13.639 3.95745C13.4617 3.66544 13.2121 3.42404 12.9143 3.25651C12.6166 3.08898 12.2807 3.00098 11.939 3.00098C11.5974 3.00098 11.2615 3.08898 10.9637 3.25651C10.666 3.42404 10.4164 3.66544 10.239 3.95745Z" stroke="#F84932" stroke-width="1.5" stroke-linecap="round" stroke-linejoin="round"/>
<path d="M12 9V13" stroke="#F84932" stroke-width="1.5" stroke-linecap="round" stroke-linejoin="round"/>
<path d="M12 17H12.01" stroke="#F84932" stroke-width="1.5" stroke-linecap="round" stroke-linejoin="round"/>
</g>
<defs>
<clipPath id="clip0_9670_130241">
<rect width="24" height="24" fill="white"/>
</clipPath>
</defs>
</svg>
