<svg width="20" height="20" viewBox="0 0 20 20" fill="none" xmlns="http://www.w3.org/2000/svg">
<path d="M17.5 6.45898H2.5C2.15833 6.45898 1.875 6.17565 1.875 5.83398C1.875 5.49232 2.15833 5.20898 2.5 5.20898H17.5C17.8417 5.20898 18.125 5.49232 18.125 5.83398C18.125 6.17565 17.8417 6.45898 17.5 6.45898Z" fill="#008047"/>
<path d="M15 10.625H5C4.65833 10.625 4.375 10.3417 4.375 10C4.375 9.65833 4.65833 9.375 5 9.375H15C15.3417 9.375 15.625 9.65833 15.625 10C15.625 10.3417 15.3417 10.625 15 10.625Z" fill="#008047"/>
<path d="M11.6667 14.791H8.33337C7.99171 14.791 7.70837 14.5077 7.70837 14.166C7.70837 13.8243 7.99171 13.541 8.33337 13.541H11.6667C12.0084 13.541 12.2917 13.8243 12.2917 14.166C12.2917 14.5077 12.0084 14.791 11.6667 14.791Z" fill="#008047"/>
</svg>
