<svg width="30" height="30" viewBox="0 0 30 30" fill="none" xmlns="http://www.w3.org/2000/svg">
<path fill-rule="evenodd" clip-rule="evenodd" d="M8.49927 30H21.4992C26.5847 30 30 26.4328 30 21.1249V8.87508C30 3.56717 26.5847 0 21.5007 0H8.49927C3.41534 0 0 3.56717 0 8.87508V21.1249C0 26.4328 3.41534 30 8.49927 30ZM9.74829 13.5C7.68032 13.5 6 11.8174 6 9.75C6 7.6826 7.68032 6 9.74829 6C11.8147 6 13.4966 7.6826 13.4966 9.75C13.4966 11.8174 11.8147 13.5 9.74829 13.5ZM26.7312 19.4009C27.2335 20.6889 26.9726 22.2368 26.4356 23.5124C25.7991 25.0294 24.5803 26.178 23.0448 26.6796C22.363 26.9025 21.648 27 20.9346 27H8.29297C7.03499 27 5.92182 26.6981 5.00926 26.1362C4.43759 25.7833 4.33652 24.969 4.76038 24.4412C5.46931 23.5588 6.16919 22.6734 6.8751 21.7802C8.22057 20.0712 9.12709 19.5759 10.1347 20.0108C10.5434 20.1904 10.9537 20.4598 11.3761 20.7446C12.5013 21.5093 14.0655 22.5604 16.1259 21.4195C17.5359 20.6298 18.3537 19.2752 19.0659 18.0956L19.0778 18.0759C19.1282 17.9931 19.1783 17.9103 19.2281 17.8278C19.4675 17.4318 19.7036 17.0411 19.9707 16.6811C20.3056 16.2307 21.547 14.822 23.1549 15.8251C24.1791 16.4567 25.0403 17.3111 25.962 18.226C26.3134 18.5759 26.5638 18.9737 26.7312 19.4009Z" fill="#B5B5B5"/>
</svg>
