<svg width="202" height="69" viewBox="0 0 202 69" fill="none" xmlns="http://www.w3.org/2000/svg">
<g clip-path="url(#clip0_6591_113591)">
<mask id="mask0_6591_113591" style="mask-type:alpha" maskUnits="userSpaceOnUse" x="148" y="0" width="33" height="19">
<path d="M152.476 0.854991C152.476 0.854991 152.446 0.885522 152.476 0.854991C152.446 0.885522 152.476 0.854991 152.476 0.854991ZM160.837 0.274902C157.877 0.274902 155.07 0.458089 152.415 0.854991H152.354C152.385 0.854991 152.385 0.854991 152.415 0.854991C149.242 1.43508 148.571 3.23641 148.571 3.23641C147.747 4.88508 149.334 9.40366 152.507 14.7771C153.361 14.655 158.793 13.9222 164.59 14.0444C170.388 14.1665 173.744 14.8992 175.209 15.7846C176.674 16.67 176.247 18.4103 176.063 18.8683C177.131 16.9448 179.45 12.3957 180.122 9.64791C180.824 6.90012 180.213 5.70941 180.091 5.4041C179.45 3.84702 178.23 3.14481 177.925 2.96163C174.782 1.40455 169.686 0.793927 166.36 0.519149C164.651 0.366494 162.851 0.274902 161.02 0.274902H160.837Z" fill="#D9D9D9"/>
</mask>
<g mask="url(#mask0_6591_113591)">
<path d="M147.686 0.274931L180.824 0.213867L180.854 18.8683L147.747 18.9599L147.686 0.274931Z" fill="url(#paint0_linear_6591_113591)"/>
</g>
<mask id="mask1_6591_113591" style="mask-type:alpha" maskUnits="userSpaceOnUse" x="136" y="0" width="46" height="45">
<path d="M152.446 0.885498C152.415 0.885498 152.385 0.885498 152.354 0.916029C143.414 2.13727 139.539 4.88506 138.013 6.4116C138.013 6.4116 136.213 8.09081 136.304 10.747C136.426 14.197 138.532 18.9904 139.478 20.9443C141.492 25.005 144.299 29.1266 145.123 30.2258C146.679 32.3629 149.395 35.6603 152.171 38.2554C154.307 40.2094 157.237 42.7129 159.647 43.9647C161.02 44.6669 162.637 44.6974 162.79 44.6974C163.156 44.6974 165.201 44.6058 167.062 42.9572C169.32 40.9116 171.547 37.0036 173.073 34.378C175.423 30.3784 177.376 25.6766 178.352 23.1426C179.084 21.2497 181.098 15.3877 181.678 11.0828C182.014 8.70143 181.342 6.9001 181.098 6.35054C180.732 5.52621 180.305 4.88506 179.817 4.36603C179.573 4.12178 179.206 3.78594 178.84 3.54169C178.413 3.23638 177.986 3.0532 177.986 3.0532C178.291 3.20585 179.511 3.90806 180.152 5.49567C180.274 5.80098 180.854 6.99169 180.183 9.73948C179.481 12.4873 177.223 17.0059 176.124 18.9293C176.124 18.9293 176.124 18.9293 176.124 18.9598C175.85 19.4483 169.625 30.4395 166.604 30.409C163.614 30.3784 157.053 21.616 155.436 19.2957C154.368 17.7691 153.392 16.3036 152.568 14.8687C149.395 9.52576 147.838 5.00718 148.662 3.35851C148.571 3.23638 149.242 1.46559 152.446 0.885498Z" fill="#D9D9D9"/>
</mask>
<g mask="url(#mask1_6591_113591)">
<path d="M155.009 -21.677L203.495 18.8376L163.187 67.1681L114.67 26.6535L155.009 -21.677Z" fill="url(#paint1_linear_6591_113591)"/>
</g>
<path d="M30.6052 50.3455H25.8755V68.5114H30.6052V50.3455Z" fill="#034C2D"/>
<path d="M57.2435 68.2674C56.5112 68.0231 55.9314 67.5651 55.5347 66.9545C54.7719 65.7333 54.6803 64.2678 54.6803 62.3138V54.6505H51.751V50.3457H54.6803V45.9492H59.4405V50.3457H63.8039V54.6505H59.4405V62.8939C59.4405 63.4129 59.471 63.7793 59.5015 63.993C59.5625 64.2067 59.593 64.2678 59.593 64.2678C59.593 64.2678 59.6235 64.3289 59.7456 64.3289C59.8982 64.3899 60.1728 64.4205 60.6 64.4205C60.8441 64.4205 61.3628 64.3594 61.7595 64.2983C62.1562 64.2373 62.5223 64.1762 62.5223 64.1762L63.4072 63.993L63.8649 67.901L63.2241 68.1147C63.1631 68.1147 61.6374 68.6337 59.8066 68.6337C58.7997 68.6337 57.9758 68.5421 57.2435 68.2674Z" fill="#034C2D"/>
<path d="M73.6904 68.7557C72.3172 68.7557 71.1577 68.6336 70.1203 68.3588C69.0828 68.0535 68.1979 67.565 67.4961 66.8017C66.0925 65.2752 65.6653 62.9243 65.6653 59.4743C65.6653 56.8792 65.9399 54.9252 66.6417 53.4292C67.3435 51.9637 68.5946 50.9867 70.1508 50.5593C71.1882 50.2539 72.3478 50.1624 73.7209 50.1624C76.6807 50.1624 79.4879 50.8646 79.5185 50.8646L80.2203 51.0172L79.61 55.2916L78.7556 55.1084C78.7556 55.1084 78.6336 55.0778 78.42 55.0168C78.1759 54.9862 77.8707 54.9252 77.474 54.8641C76.6502 54.742 75.5822 54.6504 74.4837 54.6504C73.3242 54.6504 72.5003 54.7115 71.9511 54.8947C71.4018 55.0778 71.1882 55.261 70.9747 55.5969C70.8221 55.8411 70.7 56.177 70.639 56.696C70.5475 57.3677 70.4864 58.2836 70.4864 59.4438C70.4864 60.7566 70.5475 61.7336 70.6695 62.4358C70.8221 63.138 71.0357 63.4739 71.3103 63.7181C71.4934 63.9013 71.768 64.0234 72.1647 64.115C72.7139 64.2677 73.4768 64.2982 74.4837 64.2982C76.1315 64.2982 77.7182 64.0234 78.3895 63.9013C78.6336 63.8708 78.7556 63.8402 78.7556 63.8402L79.6405 63.657L80.2508 67.8093L79.61 68.023C79.4879 68.023 77.291 68.7557 73.6904 68.7557Z" fill="#034C2D"/>
<path d="M126.326 54.0093C126.021 52.6354 125.35 51.5362 124.221 50.9256C123.122 50.315 121.719 50.1624 119.979 50.1624C118.911 50.1624 117.782 50.2845 117.782 50.2845L117.569 50.315L115.372 52.0247H115.341C115.311 52.0553 115.311 52.0553 115.25 52.0858C114.487 51.3225 113.785 50.8035 112.961 50.5287C112.168 50.2539 111.344 50.1929 110.337 50.1929H110.215C109.239 50.1929 108.049 50.315 108.049 50.315L107.896 50.3455L106.004 51.811C105.913 51.8721 105.882 51.9026 105.821 51.9332C105.669 51.9942 105.638 51.9026 105.608 51.8416L105.455 50.4066H101.519V68.5725H106.279V54.8947C106.981 54.7725 108.018 54.6504 109.056 54.6504C109.757 54.6504 110.307 54.6809 110.673 54.742C110.947 54.8031 111.1 54.8947 111.222 54.9557C111.344 55.0778 111.466 55.2305 111.588 55.6579C111.68 56.0854 111.741 56.7265 111.741 57.6424V68.6031H116.501V56.4212C116.501 55.9022 116.47 55.4137 116.348 54.8947C117.111 54.8031 118.179 54.7115 119.186 54.7115C119.888 54.7115 120.437 54.742 120.803 54.8336C121.078 54.8947 121.261 54.9557 121.353 55.0168C121.505 55.1389 121.627 55.261 121.719 55.6885C121.81 56.0854 121.871 56.757 121.871 57.673V68.5725H126.631V57.3371C126.631 55.9938 126.54 54.8947 126.326 54.0093Z" fill="#034C2D"/>
<path d="M47.1435 51.0172C45.8314 50.3456 44.1837 50.1318 42.0783 50.1318C40.339 50.1318 38.8133 50.2845 37.5623 50.8035C36.2807 51.3225 35.2432 52.269 34.6635 53.704C34.1142 55.1694 33.8396 57.2761 33.8091 59.4438C33.8091 61.3062 33.9922 62.8022 34.3888 64.054C34.9381 65.9163 36.0061 67.1986 37.4402 67.8703C38.8743 68.542 40.5526 68.7252 42.4749 68.7252C46.0145 68.7252 48.6082 67.7787 48.6997 67.7482L49.3405 67.5345L48.6997 63.4739L47.8758 63.6265C46.1061 63.9929 44.6719 64.2982 42.8411 64.2982C42.2003 64.2982 41.468 64.2982 40.8272 64.1761C40.1864 64.0234 39.6677 63.8097 39.3626 63.4128C38.9049 62.8633 38.6913 61.7641 38.6913 60.7566V60.3597C38.7218 60.3292 38.7218 60.2681 38.7828 60.2681V60.2376C38.8133 60.2376 38.8438 60.2376 38.8743 60.2376C38.9354 60.2681 38.9964 60.2987 39.0574 60.3292L39.9118 61.184L40.0644 61.3062L40.2474 61.3367C40.3085 61.3367 41.4375 61.581 43.726 61.581C46.1366 61.5504 48.2115 61.3367 49.1879 61.3062L49.9203 61.2756L49.9508 60.5429C50.0118 59.3522 50.0423 58.7721 50.0423 58.1309C50.0423 56.6655 49.9508 55.4137 49.6762 54.3756C49.31 52.8796 48.4556 51.6584 47.1435 51.0172ZM43.1462 57.3371C42.5055 57.3371 42.0783 57.3371 42.0783 57.3371H42.0478H42.0172C42.0172 57.3371 41.6816 57.3371 41.1323 57.3371C40.4916 57.3371 39.6067 57.3066 38.7218 57.215C38.7523 56.6655 38.7828 56.238 38.8438 55.9022C38.9049 55.5358 38.9964 55.2916 39.0879 55.1389C39.21 54.9252 39.332 54.8031 39.8508 54.6504C40.339 54.4978 41.1018 54.4367 42.2308 54.4367C42.9632 54.4367 43.5124 54.4672 43.9091 54.5588C44.2142 54.6199 44.3973 54.7115 44.5194 54.8031C44.7024 54.9557 44.855 55.1389 44.9771 55.6579C45.0686 56.0243 45.1296 56.5739 45.1601 57.2761C44.4888 57.3371 43.7565 57.3371 43.1462 57.3371Z" fill="#034C2D"/>
<path d="M97.552 52.6964C96.9722 51.6584 96.0568 50.9867 94.8973 50.6203C93.7378 50.254 92.3342 50.1318 90.5949 50.1318C89.0387 50.1318 87.7571 50.2234 86.6892 50.4982C85.8653 50.7119 85.1635 51.0172 84.5837 51.5057C83.6988 52.2385 83.1801 53.2765 82.9055 54.5894C82.6309 55.8717 82.5393 57.4593 82.5393 59.4438C82.5393 61.2146 82.6003 62.6495 82.8139 63.8708C82.9665 64.7867 83.2106 65.55 83.6073 66.1911C84.187 67.2292 85.1025 67.9009 86.262 68.2672C87.4215 68.6336 88.7946 68.7557 90.5644 68.7557C92.1206 68.7557 93.4022 68.6641 94.5006 68.3894C95.294 68.1756 96.0263 67.8398 96.5756 67.3513C97.4605 66.6491 97.9792 65.5805 98.2538 64.2982C98.5284 63.0159 98.5895 61.4283 98.5895 59.4438C98.5895 57.673 98.5284 56.238 98.3148 55.0168C98.1928 54.1009 97.9487 53.3376 97.552 52.6964ZM93.6768 62.4358C93.6157 62.9854 93.5242 63.3517 93.4021 63.596C93.2191 63.9624 93.097 64.054 92.7003 64.2066C92.3037 64.3593 91.5713 64.3898 90.5644 64.3898C89.649 64.3898 89.0082 64.3593 88.581 64.2371C88.2453 64.1761 88.0928 64.054 87.9707 63.9318C87.7876 63.7486 87.6046 63.4128 87.4825 62.6495C87.391 61.9168 87.3299 60.8482 87.3299 59.4133C87.3299 58.131 87.3605 57.1234 87.452 56.4212C87.513 55.8717 87.6351 55.5053 87.7266 55.261C87.9097 54.8947 88.0318 54.8031 88.4284 54.6504C88.8556 54.4978 89.5269 54.4367 90.5644 54.4367C91.4493 54.4367 92.1206 54.4672 92.5478 54.5894C92.8834 54.681 93.036 54.7725 93.158 54.8947C93.3411 55.0779 93.5242 55.4137 93.6157 56.1464C93.7378 56.8792 93.7683 57.9478 93.7683 59.4133C93.7988 60.7261 93.7683 61.7336 93.6768 62.4358Z" fill="#034C2D"/>
<path d="M181.342 54.0093C181.037 52.6354 180.335 51.5362 179.237 50.9256C178.138 50.315 176.765 50.1624 174.995 50.1624C174.324 50.1624 173.073 50.315 173.043 50.315L172.829 50.3455L170.937 51.811C170.846 51.8721 170.815 51.9026 170.754 51.9332C170.632 51.9942 170.54 51.9026 170.54 51.8416L170.388 50.3761H166.391V68.542H171.151V54.9252C171.975 54.7725 173.134 54.6504 174.233 54.6504C174.934 54.6504 175.484 54.6809 175.85 54.742C176.124 54.8031 176.308 54.8947 176.399 54.9557C176.552 55.0778 176.674 55.2305 176.765 55.6579C176.887 56.0854 176.918 56.7265 176.918 57.6424V68.6031H181.678V57.3677C181.617 55.9938 181.556 54.8947 181.342 54.0093Z" fill="#034C2D"/>
<path d="M200.871 67.5346C200.841 67.5041 200.81 67.4735 200.779 67.443C200.749 67.4125 200.749 67.3819 200.718 67.3819C195.348 62.6496 193.914 58.6806 193.914 58.6806L197.087 55.1085L200.139 51.628L201.695 49.8877L200.535 49.9182H196.08L190.008 56.6656C189.886 56.7877 189.764 56.9403 189.642 57.0014C189.459 57.1235 189.215 57.093 189.215 57.093V43.2319H184.455V68.5116H189.215V60.4819C189.215 60.4819 189.581 60.4514 189.703 60.6346C189.703 60.6346 192.266 65.7027 195.867 68.481H200.2V68.5116H202C201.634 68.1757 201.237 67.8094 200.871 67.5346Z" fill="#034C2D"/>
<path d="M162.912 53.1239C162.546 52.2995 161.966 51.6278 161.234 51.2004C159.891 50.3761 158.091 50.1624 155.802 50.1624C151.744 50.1624 148.815 51.0783 148.784 51.0783L148.113 51.292L148.815 55.5358L149.7 55.3221C149.7 55.3221 149.852 55.2916 150.157 55.2C151.073 54.9862 153.209 54.5588 155.345 54.5588C156.596 54.5283 157.45 54.6504 157.877 54.8641C158.213 55.0168 158.366 55.1694 158.488 55.4137C158.61 55.6579 158.671 56.0243 158.671 56.5128L153.331 56.5739C152.293 56.5739 151.378 56.6654 150.615 56.9097C149.456 57.215 148.51 57.8867 148.021 58.8942C147.503 59.9017 147.35 61.0924 147.32 62.619C147.32 63.7181 147.411 64.634 147.655 65.4584C147.991 66.6796 148.754 67.6261 149.883 68.1146C151.012 68.6031 152.385 68.7557 154.185 68.7862C155.284 68.7862 156.657 68.6336 156.657 68.6336L156.931 68.6031L158.823 67.1681C158.915 67.107 158.945 67.0765 159.006 67.046C159.128 67.0154 159.189 67.0765 159.22 67.1376L159.373 68.5725H163.461V56.2075C163.431 54.9557 163.278 53.9787 162.912 53.1239ZM158.671 63.8708C157.755 64.0539 155.985 64.3592 154.49 64.3592C153.941 64.3592 153.483 64.3287 153.148 64.2982C152.873 64.2677 152.721 64.2066 152.598 64.1761C152.446 64.0845 152.415 64.0234 152.293 63.8402C152.202 63.6265 152.11 63.2296 152.11 62.5885C152.11 61.9168 152.202 61.4588 152.293 61.2146C152.354 61.0314 152.415 60.9703 152.446 60.9398C152.537 60.8787 152.69 60.8177 153.087 60.7566C153.453 60.7566 154.002 60.7566 154.643 60.7566L158.61 60.665V63.8708H158.671Z" fill="#034C2D"/>
<path d="M141.492 50.651C140.546 50.3151 139.478 50.1319 138.135 50.1319C137.647 50.1319 137.159 50.193 136.792 50.2541C136.64 50.2846 136.518 50.3151 136.426 50.3457L134.595 51.8111C134.504 51.8722 134.443 51.9027 134.412 51.9027C134.29 51.9638 134.229 51.9027 134.199 51.8417V43.2014H129.469V67.5041L130.018 67.6873C132.337 68.4811 134.87 68.7253 136.731 68.7253C138.349 68.7253 139.661 68.5727 140.79 68.2368C142.468 67.7483 143.689 66.6797 144.299 65.1532C144.94 63.6572 145.092 61.7642 145.092 59.3218C145.092 56.2687 144.818 54.0094 143.75 52.3912C143.231 51.5974 142.437 51.0173 141.492 50.651ZM140.149 62.1611C140.057 62.6802 139.966 63.0771 139.844 63.3213C139.661 63.7488 139.478 63.8709 139.111 64.0541C138.745 64.2067 138.135 64.2983 137.281 64.2983C136.274 64.2983 135.358 64.2067 134.687 64.1151C134.534 64.0846 134.382 64.0541 134.26 64.0235V54.9558C134.962 54.7727 136.213 54.5284 137.372 54.5284C138.074 54.5284 138.623 54.5895 138.989 54.7421C139.234 54.8337 139.447 54.9558 139.569 55.1085C139.783 55.3527 139.966 55.7802 140.118 56.4519C140.24 57.1541 140.302 58.1311 140.302 59.3523C140.332 60.543 140.271 61.4895 140.149 62.1611Z" fill="#034C2D"/>
<path d="M8.2997 68.1146L8.33021 68.1757L8.39124 68.2062C8.42175 68.2062 9.97795 68.6031 12.1139 68.6031C13.1819 68.6031 14.4024 68.5115 15.6535 68.2062L15.745 68.1757L15.7755 68.0841C21.1764 59.8407 23.0683 51.9637 23.7396 47.4146C24.0752 45.5522 24.1363 43.4456 24.1363 43.415L18.4912 44.2394C18.064 47.2925 16.5689 56.0854 12.358 63.2602L12.1749 63.5655L11.9918 63.2602C9.12357 58.3447 7.53686 53.3681 6.65196 49.6434C6.22477 47.842 5.85861 45.369 5.70604 44.2088L0 43.4456C0.0305136 44.4531 0.427191 55.9938 8.2997 68.1146Z" fill="#034C2D"/>
</g>
<defs>
<linearGradient id="paint0_linear_6591_113591" x1="148.37" y1="9.6073" x2="180.463" y2="9.5239" gradientUnits="userSpaceOnUse">
<stop stop-color="#034C2D"/>
<stop offset="0.2622" stop-color="#286A31"/>
<stop offset="0.8446" stop-color="#87B73D"/>
<stop offset="0.9121" stop-color="#92C03E"/>
<stop offset="1" stop-color="#92C03E"/>
</linearGradient>
<linearGradient id="paint1_linear_6591_113591" x1="138.493" y1="5.58611" x2="173.687" y2="34.9453" gradientUnits="userSpaceOnUse">
<stop stop-color="#92C03E"/>
<stop offset="0.0989011" stop-color="#92C03E"/>
<stop offset="0.4551" stop-color="#548E37"/>
<stop offset="0.8232" stop-color="#1A5F30"/>
<stop offset="1" stop-color="#034C2D"/>
</linearGradient>
<clipPath id="clip0_6591_113591">
<rect width="202" height="69" fill="white"/>
</clipPath>
</defs>
</svg>
