<svg width="40" height="40" viewBox="0 0 40 40" fill="none" xmlns="http://www.w3.org/2000/svg">
<rect width="40" height="40" rx="10" fill="#92C03E"/>
<path d="M20 9.16675C17.1617 9.16675 14.8542 11.4742 14.8542 14.3126C14.8542 17.0967 17.0317 19.3501 19.87 19.4476C19.9567 19.4367 20.0434 19.4367 20.1084 19.4476C20.13 19.4476 20.1409 19.4476 20.1625 19.4476C20.1734 19.4476 20.1734 19.4476 20.1842 19.4476C22.9575 19.3501 25.135 17.0967 25.1459 14.3126C25.1459 11.4742 22.8384 9.16675 20 9.16675Z" fill="white"/>
<path d="M25.5034 22.3291C22.4809 20.3141 17.5517 20.3141 14.5075 22.3291C13.1317 23.25 12.3734 24.4958 12.3734 25.8283C12.3734 27.1608 13.1317 28.3958 14.4967 29.3058C16.0134 30.3241 18.0067 30.8333 20 30.8333C21.9934 30.8333 23.9867 30.3241 25.5034 29.3058C26.8684 28.385 27.6267 27.15 27.6267 25.8066C27.6159 24.4741 26.8684 23.2391 25.5034 22.3291Z" fill="white"/>
</svg>
