<svg width="40" height="40" viewBox="0 0 40 40" fill="none" xmlns="http://www.w3.org/2000/svg">
<rect width="40" height="40" rx="10" fill="#92C03E"/>
<path d="M27.3125 15.6667V17.9417C26.8358 17.8767 26.2942 17.8442 25.6875 17.8334V15.6667C25.6875 12.2542 24.7233 9.97925 20 9.97925C15.2767 9.97925 14.3125 12.2542 14.3125 15.6667V17.8334C13.7058 17.8442 13.1642 17.8767 12.6875 17.9417V15.6667C12.6875 12.5251 13.4458 8.35425 20 8.35425C26.5542 8.35425 27.3125 12.5251 27.3125 15.6667Z" fill="white"/>
<path d="M27.3125 17.9416C26.8359 17.8766 26.2942 17.8441 25.6875 17.8333H14.3125C13.7059 17.8441 13.1642 17.8766 12.6875 17.9416C9.92502 18.2774 9.16669 19.6316 9.16669 23.2499V25.4166C9.16669 29.7499 10.25 30.8333 14.5834 30.8333H25.4167C29.75 30.8333 30.8334 29.7499 30.8334 25.4166V23.2499C30.8334 19.6316 30.075 18.2774 27.3125 17.9416ZM16.4359 25.1024C16.23 25.2974 15.9484 25.4166 15.6667 25.4166C15.5259 25.4166 15.385 25.3841 15.255 25.3299C15.1142 25.2758 15.0059 25.1999 14.8975 25.1024C14.7025 24.8966 14.5834 24.6149 14.5834 24.3333C14.5834 24.1924 14.6159 24.0516 14.67 23.9216C14.7242 23.7916 14.8 23.6724 14.8975 23.5641C15.0059 23.4666 15.1142 23.3908 15.255 23.3366C15.6559 23.1633 16.1325 23.2608 16.4359 23.5641C16.5334 23.6724 16.6092 23.7916 16.6634 23.9216C16.7175 24.0516 16.75 24.1924 16.75 24.3333C16.75 24.6149 16.6309 24.8966 16.4359 25.1024ZM20.9967 24.7449C20.9425 24.8749 20.8667 24.9941 20.7692 25.1024C20.5634 25.2974 20.2817 25.4166 20 25.4166C19.7075 25.4166 19.4367 25.2974 19.2309 25.1024C19.1334 24.9941 19.0575 24.8749 19.0034 24.7449C18.9492 24.6149 18.9167 24.4741 18.9167 24.3333C18.9167 24.0408 19.0359 23.7699 19.2309 23.5641C19.6317 23.1633 20.3575 23.1633 20.7692 23.5641C20.9642 23.7699 21.0834 24.0408 21.0834 24.3333C21.0834 24.4741 21.0509 24.6149 20.9967 24.7449ZM25.1025 25.1024C24.8967 25.2974 24.615 25.4166 24.3334 25.4166C24.0517 25.4166 23.77 25.2974 23.5642 25.1024C23.3692 24.8966 23.25 24.6258 23.25 24.3333C23.25 24.0408 23.3692 23.7699 23.5642 23.5641C23.9759 23.1633 24.7017 23.1633 25.1025 23.5641C25.1459 23.6183 25.1892 23.6724 25.2325 23.7374C25.2759 23.7916 25.3084 23.8566 25.33 23.9216C25.3625 23.9866 25.3842 24.0516 25.395 24.1166C25.4059 24.1924 25.4167 24.2683 25.4167 24.3333C25.4167 24.6149 25.2975 24.8966 25.1025 25.1024Z" fill="white"/>
</svg>
