<svg width="97" height="323" viewBox="0 0 97 323" fill="none" xmlns="http://www.w3.org/2000/svg">
<path d="M0 14.0718C0 6.30015 6.30014 0 14.0718 0H82.9282C90.6999 0 97 6.30014 97 14.0718V193.928C97 201.7 90.6999 208 82.9282 208H14.0718C6.30014 208 0 201.7 0 193.928V14.0718Z" fill="#262E39"/>
<rect x="24" y="43" width="49" height="122" rx="10.5538" fill="#14181D"/>
<rect x="32" y="60" width="33" height="88" rx="4" fill="#495362"/>
<rect x="51" y="79" width="6" height="50" rx="3" fill="#C6FDFF"/>
<rect x="39" y="70" width="6" height="68" rx="3" fill="#C6FDFF"/>
<rect x="37" y="208" width="23" height="7" fill="#BEC4CD"/>
<rect x="40" y="254" width="17" height="30" rx="4" fill="#262E39"/>
<rect x="45" y="275" width="7" height="48" rx="3.5" fill="#262E39"/>
<rect x="40" y="266" width="17" height="3" fill="#0E1216"/>
<rect x="31" y="211" width="35" height="55" rx="4" fill="#262E39"/>
</svg>
