<svg width="254" height="152" viewBox="0 0 254 152" fill="none" xmlns="http://www.w3.org/2000/svg">
<rect x="254" y="152" width="254" height="152" rx="11.4491" transform="rotate(-180 254 152)" fill="url(#paint0_linear_6591_114633)"/>
<path opacity="0.5" d="M254 140.551C254 146.874 248.874 152 242.551 152L11.4491 152C5.12593 152 4.48124e-07 146.874 1.00091e-06 140.551L3.93402e-06 107L254 107L254 140.551Z" fill="#D8E4E8"/>
<rect x="103.541" y="100" width="36" height="36" rx="18" transform="rotate(-180 103.541 100)" fill="#E74642"/>
<rect x="56" y="100" width="36" height="36" rx="8" transform="rotate(-180 56 100)" fill="#D3954E"/>
<rect x="242" y="123" width="227" height="5.99998" rx="2.99999" transform="rotate(-180 242 123)" fill="#486697"/>
<rect x="242" y="133" width="227" height="5.99998" rx="2.99999" transform="rotate(-180 242 133)" fill="#486697"/>
<rect x="242" y="143" width="227" height="5.99998" rx="2.99999" transform="rotate(-180 242 143)" fill="#486697"/>
<rect x="109" y="29" width="99" height="5.99999" rx="3" transform="rotate(-180 109 29)" fill="#486697"/>
<rect x="112" y="57" width="75" height="5.99999" rx="3" transform="rotate(-180 112 57)" fill="#486697"/>
<rect x="97" y="43" width="38" height="6" rx="3" transform="rotate(-180 97 43)" fill="#486697"/>
<rect x="72" y="16" width="62" height="5.99999" rx="3" transform="rotate(-180 72 16)" fill="#486697"/>
<path d="M186 77.3892L120.099 77.3892L120.099 0.999979L185.242 0.999985C185.661 0.999985 186 1.3392 186 1.75764L186 77.3892Z" fill="white"/>
<path fill-rule="evenodd" clip-rule="evenodd" d="M150.516 46.243C150.516 44.9123 151.589 43.8335 152.933 43.8335C154.267 43.8335 155.349 44.9144 155.349 46.243V60.7573C155.349 62.0881 154.277 63.1668 152.933 63.1668C151.598 63.1668 150.516 62.086 150.516 60.7573V46.243ZM152.933 29.3335C151.512 29.3335 150.116 29.5081 148.767 29.8498C147.473 30.1773 146.159 29.394 145.831 28.1001C145.503 26.8063 146.287 25.4918 147.581 25.1643C149.317 24.7246 151.111 24.5002 152.933 24.5002C164.948 24.5002 174.683 34.2379 174.683 46.2614V53.5002C174.683 54.8348 173.601 55.9168 172.266 55.9168C170.931 55.9168 169.849 54.8348 169.849 53.5002V46.2614C169.849 36.9069 162.278 29.3335 152.933 29.3335ZM152.933 19.6668C145.233 19.6668 138.071 22.9524 133.056 28.5933C132.169 29.5907 130.642 29.6803 129.644 28.7935C128.647 27.9066 128.557 26.3791 129.444 25.3817C135.367 18.7198 143.838 14.8335 152.933 14.8335C162.075 14.8335 170.588 18.7639 176.514 25.4899C177.397 26.4913 177.3 28.0185 176.299 28.9008C175.297 29.7832 173.77 29.6867 172.888 28.6853C167.869 22.9898 160.672 19.6668 152.933 19.6668ZM160.183 60.7502V55.8882C160.183 54.5535 161.265 53.4715 162.599 53.4715C163.934 53.4715 165.016 54.5535 165.016 55.8882V60.7502C165.016 62.0848 163.934 63.1668 162.599 63.1668C161.265 63.1668 160.183 62.0848 160.183 60.7502ZM136.016 46.2591V53.5002C136.016 54.8348 134.934 55.9168 133.599 55.9168C132.265 55.9168 131.183 54.8348 131.183 53.5002V46.2591C131.183 40.7121 133.269 35.4852 136.956 31.4935C137.862 30.5131 139.391 30.4526 140.371 31.3583C141.352 32.264 141.412 33.7929 140.506 34.7733C137.636 37.8805 136.016 41.9397 136.016 46.2591ZM145.683 46.2431V60.7502C145.683 62.0848 144.601 63.1668 143.266 63.1668C141.931 63.1668 140.849 62.0848 140.849 60.7502V46.2431C140.849 39.5765 146.267 34.1668 152.933 34.1668C159.607 34.1668 165.016 39.5765 165.016 46.2524C165.016 47.5871 163.934 48.6691 162.599 48.6691C161.265 48.6691 160.183 47.5871 160.183 46.2524C160.183 42.2458 156.937 39.0002 152.933 39.0002C148.935 39.0002 145.683 42.2475 145.683 46.2431Z" fill="#486697"/>
<path d="M253 77.3892L187.099 77.3892L187.099 0.999979L242 0.999984C248.075 0.999984 253 5.92485 253 12L253 77.3892Z" fill="white"/>
<path fill-rule="evenodd" clip-rule="evenodd" d="M217.516 46.243C217.516 44.9123 218.589 43.8335 219.933 43.8335C221.267 43.8335 222.349 44.9144 222.349 46.243V60.7573C222.349 62.0881 221.277 63.1668 219.933 63.1668C218.598 63.1668 217.516 62.086 217.516 60.7573V46.243ZM219.933 29.3335C218.512 29.3335 217.116 29.5081 215.767 29.8498C214.473 30.1773 213.159 29.394 212.831 28.1001C212.503 26.8063 213.287 25.4918 214.581 25.1643C216.317 24.7246 218.111 24.5002 219.933 24.5002C231.948 24.5002 241.683 34.2379 241.683 46.2614V53.5002C241.683 54.8348 240.601 55.9168 239.266 55.9168C237.931 55.9168 236.849 54.8348 236.849 53.5002V46.2614C236.849 36.9069 229.278 29.3335 219.933 29.3335ZM219.933 19.6668C212.233 19.6668 205.071 22.9524 200.056 28.5933C199.169 29.5907 197.642 29.6803 196.644 28.7935C195.647 27.9066 195.557 26.3791 196.444 25.3817C202.367 18.7198 210.838 14.8335 219.933 14.8335C229.075 14.8335 237.588 18.7639 243.514 25.4899C244.397 26.4913 244.3 28.0185 243.299 28.9008C242.297 29.7832 240.77 29.6867 239.888 28.6853C234.869 22.9898 227.672 19.6668 219.933 19.6668ZM227.183 60.7502V55.8882C227.183 54.5535 228.265 53.4715 229.599 53.4715C230.934 53.4715 232.016 54.5535 232.016 55.8882V60.7502C232.016 62.0848 230.934 63.1668 229.599 63.1668C228.265 63.1668 227.183 62.0848 227.183 60.7502ZM203.016 46.2591V53.5002C203.016 54.8348 201.934 55.9168 200.599 55.9168C199.265 55.9168 198.183 54.8348 198.183 53.5002V46.2591C198.183 40.7121 200.269 35.4852 203.956 31.4935C204.862 30.5131 206.391 30.4526 207.371 31.3583C208.352 32.264 208.412 33.7929 207.506 34.7733C204.636 37.8805 203.016 41.9397 203.016 46.2591ZM212.683 46.2431V60.7502C212.683 62.0848 211.601 63.1668 210.266 63.1668C208.931 63.1668 207.849 62.0848 207.849 60.7502V46.2431C207.849 39.5765 213.267 34.1668 219.933 34.1668C226.607 34.1668 232.016 39.5765 232.016 46.2524C232.016 47.5871 230.934 48.6691 229.599 48.6691C228.265 48.6691 227.183 47.5871 227.183 46.2524C227.183 42.2458 223.937 39.0002 219.933 39.0002C215.935 39.0002 212.683 42.2475 212.683 46.2431Z" fill="#486697"/>
<defs>
<linearGradient id="paint0_linear_6591_114633" x1="254" y1="217.41" x2="508" y2="217.41" gradientUnits="userSpaceOnUse">
<stop stop-color="#71DBD6"/>
<stop offset="0.386035" stop-color="#E7C9A7"/>
<stop offset="0.658587" stop-color="#EAC9A6"/>
<stop offset="1" stop-color="#87D3D1"/>
</linearGradient>
</defs>
</svg>
