<svg width="40" height="40" viewBox="0 0 40 40" fill="none" xmlns="http://www.w3.org/2000/svg">
<rect width="40" height="40" rx="20" fill="#E6F6EC"/>
<rect x="18" y="9" width="10" height="22" rx="3" fill="#008047"/>
<path d="M14.8332 15.5468C15.0772 15.3309 15.4972 15.3112 15.7732 15.5001C16.0505 15.6901 16.0771 16.0181 15.8332 16.233C14.6505 17.2785 13.9999 18.6166 13.9999 20.0005C13.9999 21.3844 14.6505 22.7225 15.8332 23.768C16.0771 23.9829 16.0505 24.3099 15.7732 24.4999C15.6465 24.5871 15.4892 24.6296 15.3332 24.6296C15.1478 24.6296 14.9652 24.5694 14.8332 24.4531C13.4359 23.2188 12.6666 21.6366 12.6666 20.0005C12.6666 18.3644 13.4359 16.7822 14.8332 15.5468Z" fill="#008047"/>
<path d="M13.8332 14.8637C12.2213 16.2881 11.3333 18.1131 11.3333 20.0005C11.3333 21.8879 12.2213 23.7129 13.8332 25.1383C14.0772 25.3532 14.0505 25.6802 13.7732 25.8702C13.6466 25.9574 13.4892 26 13.3332 26C13.1479 26 12.9652 25.9398 12.8332 25.8235C11.0066 24.2092 10 22.1412 10 20.0005C10 17.8598 11.0066 15.7918 12.8332 14.1765C13.0759 13.9605 13.4972 13.9398 13.7732 14.1308C14.0505 14.3197 14.0772 14.6478 13.8332 14.8637Z" fill="#008047"/>
<rect x="21" y="12" width="4" height="10" rx="1" fill="white"/>
</svg>
