<svg width="397" height="336" viewBox="0 0 397 336" fill="none" xmlns="http://www.w3.org/2000/svg">
<ellipse cx="198.5" cy="289" rx="198.5" ry="47" fill="url(#paint0_linear_6654_97904)"/>
<rect x="327.633" y="279.99" width="185.452" height="110.979" rx="11.4491" transform="rotate(-160.796 327.633 279.99)" fill="#D9D9D9"/>
<path opacity="0.5" d="M331.399 269.178C329.319 275.149 322.792 278.304 316.821 276.224L163.313 222.755C157.341 220.675 154.187 214.148 156.267 208.177L163.308 187.962L338.44 248.962L331.399 269.178Z" fill="#B5B5B5"/>
<rect x="236.381" y="208.002" width="26.2845" height="26.2845" rx="13.1423" transform="rotate(-160.796 236.381 208.002)" fill="#B5B5B5"/>
<rect x="203.602" y="196.584" width="26.2845" height="26.2845" rx="8" transform="rotate(-160.796 203.602 196.584)" fill="#B5B5B5"/>
<rect x="326.324" y="257.112" width="165.738" height="4.38074" rx="2.19037" transform="rotate(-160.796 326.324 257.112)" fill="#B5B5B5"/>
<rect x="323.922" y="264.007" width="165.738" height="4.38074" rx="2.19037" transform="rotate(-160.796 323.922 264.007)" fill="#B5B5B5"/>
<rect x="321.52" y="270.902" width="165.738" height="4.38074" rx="2.19037" transform="rotate(-160.796 321.52 270.902)" fill="#B5B5B5"/>
<rect x="257.195" y="160.358" width="72.2824" height="4.38075" rx="2.19037" transform="rotate(-160.796 257.195 160.358)" fill="#B5B5B5"/>
<rect x="252.539" y="180.385" width="54.7594" height="4.38075" rx="2.19037" transform="rotate(-160.796 252.539 180.385)" fill="#B5B5B5"/>
<rect x="245.559" y="167.129" width="27.7448" height="4.38075" rx="2.19038" transform="rotate(-160.796 245.559 167.129)" fill="#B5B5B5"/>
<rect x="234.807" y="142.509" width="45.2678" height="4.38075" rx="2.19037" transform="rotate(-160.796 234.807 142.509)" fill="#B5B5B5"/>
<path d="M298.664 212.215L253.226 196.388L271.572 143.718L316.294 159.295C316.689 159.433 316.898 159.865 316.761 160.26L298.664 212.215Z" fill="white"/>
<g clip-path="url(#clip0_6654_97904)">
<path fill-rule="evenodd" clip-rule="evenodd" d="M281.678 182.217C281.998 181.3 282.997 180.814 283.923 181.137C284.844 181.457 285.33 182.462 285.011 183.378L281.525 193.386C281.206 194.303 280.207 194.79 279.28 194.467C278.36 194.146 277.873 193.141 278.193 192.225L281.678 182.217ZM287.406 171.139C286.426 170.798 285.422 170.583 284.409 170.494C283.439 170.409 282.72 169.554 282.805 168.583C282.89 167.612 283.746 166.894 284.717 166.979C286.02 167.093 287.31 167.369 288.566 167.806C296.851 170.692 301.224 179.744 298.337 188.034L296.598 193.025C296.278 193.945 295.272 194.432 294.352 194.111C293.431 193.791 292.945 192.785 293.266 191.864L295.004 186.873C297.251 180.423 293.849 173.383 287.406 171.139ZM289.727 164.474C284.418 162.625 278.691 163.17 273.878 165.855C273.027 166.33 271.953 166.025 271.478 165.173C271.003 164.322 271.308 163.248 272.159 162.773C277.843 159.602 284.617 158.957 290.888 161.141C297.192 163.337 302.117 168.091 304.588 174.152C304.956 175.054 304.523 176.084 303.62 176.452C302.718 176.82 301.688 176.387 301.32 175.484C299.228 170.352 295.064 166.332 289.727 164.474ZM284.859 194.542L286.027 191.189C286.348 190.269 287.353 189.783 288.274 190.104C289.194 190.424 289.68 191.43 289.36 192.35L288.192 195.702C287.871 196.623 286.866 197.109 285.945 196.788C285.025 196.468 284.539 195.462 284.859 194.542ZM271.677 178.746L269.938 183.739C269.617 184.659 268.611 185.145 267.691 184.825C266.771 184.504 266.285 183.498 266.605 182.578L268.344 177.586C269.676 173.761 272.37 170.658 275.871 168.791C276.731 168.333 277.8 168.658 278.258 169.518C278.717 170.378 278.391 171.447 277.531 171.905C274.806 173.358 272.714 175.768 271.677 178.746ZM278.346 181.057L274.862 191.059C274.541 191.98 273.535 192.466 272.615 192.145C271.695 191.825 271.209 190.819 271.529 189.899L275.013 179.896C276.614 175.299 281.649 172.871 286.245 174.471C290.847 176.074 293.277 181.103 291.674 185.706C291.353 186.627 290.347 187.113 289.427 186.792C288.507 186.472 288.021 185.466 288.341 184.546C289.303 181.783 287.845 178.766 285.084 177.804C282.328 176.844 279.305 178.302 278.346 181.057Z" fill="#B5B5B5"/>
</g>
<path d="M344.861 228.306L299.423 212.479L317.769 159.809L352.819 172.017C358.556 174.016 361.587 180.286 359.589 186.023L344.861 228.306Z" fill="white"/>
<g clip-path="url(#clip1_6654_97904)">
<path fill-rule="evenodd" clip-rule="evenodd" d="M327.876 198.308C328.195 197.391 329.194 196.905 330.121 197.227C331.041 197.548 331.527 198.553 331.208 199.469L327.722 209.477C327.403 210.394 326.404 210.881 325.477 210.558C324.557 210.237 324.071 209.232 324.39 208.316L327.876 198.308ZM333.603 187.23C332.623 186.889 331.619 186.674 330.607 186.585C329.636 186.5 328.918 185.645 329.002 184.674C329.087 183.703 329.943 182.985 330.914 183.07C332.217 183.184 333.508 183.46 334.764 183.897C343.048 186.783 347.422 195.835 344.534 204.125L342.796 209.116C342.475 210.036 341.469 210.523 340.549 210.202C339.629 209.881 339.142 208.876 339.463 207.955L341.201 202.964C343.448 196.514 340.047 189.474 333.603 187.23ZM335.924 180.565C330.616 178.715 324.889 179.261 320.076 181.946C319.225 182.42 318.15 182.115 317.675 181.264C317.2 180.413 317.506 179.339 318.357 178.864C324.041 175.693 330.815 175.048 337.085 177.232C343.389 179.428 348.314 184.182 350.785 190.243C351.153 191.145 350.72 192.175 349.818 192.543C348.915 192.911 347.886 192.478 347.518 191.575C345.425 186.443 341.261 182.423 335.924 180.565ZM331.057 210.633L332.224 207.28C332.545 206.36 333.551 205.874 334.471 206.194C335.391 206.515 335.877 207.521 335.557 208.441L334.389 211.793C334.069 212.714 333.063 213.2 332.143 212.879C331.222 212.559 330.736 211.553 331.057 210.633ZM317.874 194.837L316.135 199.83C315.814 200.75 314.809 201.236 313.888 200.916C312.968 200.595 312.482 199.589 312.802 198.669L314.541 193.676C315.874 189.852 318.567 186.749 322.068 184.882C322.928 184.424 323.997 184.749 324.456 185.609C324.914 186.469 324.589 187.538 323.729 187.996C321.003 189.449 318.911 191.859 317.874 194.837ZM324.543 197.148L321.059 207.15C320.738 208.071 319.733 208.557 318.812 208.236C317.892 207.916 317.406 206.91 317.726 205.99L321.21 195.987C322.812 191.39 327.846 188.962 332.442 190.562C337.044 192.165 339.474 197.194 337.871 201.797C337.551 202.718 336.545 203.204 335.624 202.883C334.704 202.563 334.218 201.557 334.538 200.637C335.501 197.874 334.043 194.857 331.281 193.895C328.525 192.935 325.503 194.393 324.543 197.148Z" fill="#B5B5B5"/>
</g>
<path d="M75 284.928C75 292.7 81.3001 299 89.0718 299H163.991C171.762 299 178.063 292.7 178.063 284.928V14.0717C178.063 6.30014 171.762 0 163.991 0H89.0718C81.3001 0 75 6.30014 75 14.0717V284.928Z" fill="#B5B5B5"/>
<path d="M106.76 89.52C109.941 89.52 112.52 86.9412 112.52 83.76C112.52 80.5788 109.941 78 106.76 78C103.579 78 101 80.5788 101 83.76C101 86.9412 103.579 89.52 106.76 89.52Z" fill="#6D6D6D" fill-opacity="0.8"/>
<path d="M147.08 89.52C150.261 89.52 152.84 86.9412 152.84 83.76C152.84 80.5788 150.261 78 147.08 78C143.899 78 141.32 80.5788 141.32 83.76C141.32 86.9412 143.899 89.52 147.08 89.52Z" fill="#6D6D6D" fill-opacity="0.8"/>
<path d="M110.498 108.744C110.211 109.005 109.98 109.321 109.818 109.674C109.657 110.027 109.568 110.409 109.558 110.797C109.547 111.185 109.615 111.571 109.758 111.932C109.901 112.293 110.115 112.621 110.388 112.898C110.66 113.174 110.986 113.392 111.345 113.539C111.704 113.686 112.09 113.759 112.478 113.754C112.866 113.748 113.249 113.664 113.604 113.507C113.958 113.35 114.278 113.122 114.543 112.838C118.05 110.015 122.418 108.476 126.921 108.476C131.423 108.476 135.791 110.015 139.299 112.838C139.564 113.103 139.88 113.313 140.227 113.456C140.574 113.598 140.946 113.671 141.321 113.67C141.892 113.67 142.449 113.499 142.923 113.181C143.397 112.863 143.766 112.412 143.982 111.884C144.199 111.356 144.254 110.775 144.14 110.216C144.026 109.657 143.749 109.144 143.343 108.742C138.755 104.853 132.935 102.718 126.921 102.719C120.906 102.719 115.086 104.854 110.498 108.744Z" fill="#6D6D6D" fill-opacity="0.8"/>
<rect x="112.967" y="8.76151" width="27.0146" height="9.49163" rx="4.74582" fill="#7B7B7B"/>
<path d="M250 5C222.9 5 200.9 27 200.9 54.1C200.9 63.3 203.5 72 207.9 79.4C206.8 85.5 203.4 95.1 194 99C194 99 211.9 100.9 223.5 95.4C231.2 100.3 240.3 103.2 250 103.2C277.1 103.2 299.1 81.2 299.1 54.1C299.1 27 277.1 5 250 5Z" fill="#D9D9D9"/>
<path d="M238.379 41C238.379 42.0133 238.213 42.96 237.879 43.84C237.546 44.7067 237.073 45.4667 236.459 46.12C235.859 46.7733 235.146 47.2867 234.319 47.66C233.493 48.02 232.586 48.2 231.599 48.2C230.626 48.2 229.726 48.02 228.899 47.66C228.073 47.2867 227.353 46.7733 226.739 46.12C226.139 45.4667 225.673 44.7067 225.339 43.84C225.019 42.96 224.859 42.0133 224.859 41C224.859 39.9867 225.019 39.0467 225.339 38.18C225.673 37.3 226.139 36.5333 226.739 35.88C227.353 35.2267 228.073 34.72 228.899 34.36C229.726 33.9867 230.626 33.8 231.599 33.8C232.586 33.8 233.493 33.9867 234.319 34.36C235.146 34.72 235.859 35.2267 236.459 35.88C237.073 36.5333 237.546 37.3 237.879 38.18C238.213 39.0467 238.379 39.9867 238.379 41ZM236.219 41C236.219 40.0133 236.019 39.1267 235.619 38.34C235.233 37.5533 234.693 36.9333 233.999 36.48C233.306 36.0267 232.506 35.8 231.599 35.8C230.706 35.8 229.913 36.0267 229.219 36.48C228.526 36.9333 227.986 37.5533 227.599 38.34C227.213 39.1133 227.019 40 227.019 41C227.019 41.9867 227.213 42.8733 227.599 43.66C227.986 44.4467 228.526 45.0667 229.219 45.52C229.913 45.9733 230.706 46.2 231.599 46.2C232.506 46.2 233.306 45.9733 233.999 45.52C234.693 45.0667 235.233 44.4467 235.619 43.66C236.019 42.8733 236.219 41.9867 236.219 41Z" fill="#6D6D6D"/>
<path d="M250.694 42.74C250.694 43.8067 250.461 44.7533 249.994 45.58C249.528 46.3933 248.894 47.0333 248.094 47.5C247.294 47.9667 246.394 48.2 245.394 48.2C244.394 48.2 243.494 47.9667 242.694 47.5C241.894 47.0333 241.254 46.3933 240.774 45.58C240.308 44.7533 240.074 43.8067 240.074 42.74C240.074 41.66 240.308 40.7133 240.774 39.9C241.254 39.0733 241.894 38.4267 242.694 37.96C243.494 37.48 244.394 37.24 245.394 37.24C246.394 37.24 247.294 37.48 248.094 37.96C248.894 38.4267 249.528 39.0733 249.994 39.9C250.461 40.7133 250.694 41.66 250.694 42.74ZM248.694 42.74C248.694 42.0067 248.548 41.3733 248.254 40.84C247.961 40.2933 247.561 39.8667 247.054 39.56C246.561 39.24 246.008 39.08 245.394 39.08C244.781 39.08 244.221 39.24 243.714 39.56C243.208 39.8667 242.808 40.2933 242.514 40.84C242.221 41.3733 242.074 42.0067 242.074 42.74C242.074 43.4467 242.221 44.0733 242.514 44.62C242.808 45.1667 243.208 45.5933 243.714 45.9C244.221 46.2067 244.781 46.36 245.394 46.36C246.008 46.36 246.561 46.2067 247.054 45.9C247.561 45.5933 247.961 45.1667 248.254 44.62C248.548 44.0733 248.694 43.4467 248.694 42.74Z" fill="#6D6D6D"/>
<path d="M258.258 37.3C259.191 37.3 260.018 37.5333 260.738 38C261.471 38.4667 262.051 39.1067 262.478 39.92C262.905 40.72 263.118 41.6533 263.118 42.72C263.118 43.7867 262.905 44.7333 262.478 45.56C262.051 46.3733 261.478 47.0133 260.758 47.48C260.038 47.9467 259.225 48.18 258.318 48.18C257.811 48.18 257.331 48.1 256.878 47.94C256.425 47.78 256.025 47.5733 255.678 47.32C255.331 47.0533 255.045 46.7733 254.818 46.48C254.605 46.1867 254.471 45.9133 254.418 45.66L254.958 45.4V50.98C254.958 51.2733 254.858 51.5133 254.658 51.7C254.471 51.9 254.238 52 253.958 52C253.665 52 253.425 51.9 253.238 51.7C253.051 51.5133 252.958 51.2733 252.958 50.98V38.46C252.958 38.18 253.051 37.94 253.238 37.74C253.425 37.54 253.665 37.44 253.958 37.44C254.238 37.44 254.471 37.54 254.658 37.74C254.858 37.94 254.958 38.18 254.958 38.46V39.84L254.638 39.66C254.678 39.4067 254.805 39.1467 255.018 38.88C255.231 38.6 255.498 38.34 255.818 38.1C256.151 37.86 256.525 37.6667 256.938 37.52C257.365 37.3733 257.805 37.3 258.258 37.3ZM258.038 39.14C257.398 39.14 256.838 39.3 256.358 39.62C255.891 39.9267 255.525 40.3467 255.258 40.88C254.991 41.4133 254.858 42.0267 254.858 42.72C254.858 43.4 254.991 44.02 255.258 44.58C255.525 45.1267 255.891 45.56 256.358 45.88C256.838 46.1867 257.398 46.34 258.038 46.34C258.665 46.34 259.211 46.1867 259.678 45.88C260.145 45.56 260.511 45.1267 260.778 44.58C261.058 44.02 261.198 43.4 261.198 42.72C261.198 42.04 261.058 41.4333 260.778 40.9C260.511 40.3533 260.145 39.9267 259.678 39.62C259.211 39.3 258.665 39.14 258.038 39.14Z" fill="#6D6D6D"/>
<path d="M264.76 46.36C264.64 46.1733 264.587 45.96 264.6 45.72C264.613 45.4667 264.753 45.2533 265.02 45.08C265.207 44.96 265.4 44.9133 265.6 44.94C265.813 44.9533 266.013 45.0533 266.2 45.24C266.573 45.6533 266.987 45.98 267.44 46.22C267.907 46.46 268.467 46.58 269.12 46.58C269.387 46.5667 269.66 46.5267 269.94 46.46C270.22 46.38 270.46 46.2467 270.66 46.06C270.86 45.86 270.96 45.5733 270.96 45.2C270.96 44.8667 270.853 44.6 270.64 44.4C270.427 44.2 270.147 44.04 269.8 43.92C269.453 43.7867 269.08 43.6667 268.68 43.56C268.253 43.44 267.82 43.3067 267.38 43.16C266.953 43.0133 266.567 42.8267 266.22 42.6C265.873 42.36 265.587 42.0533 265.36 41.68C265.147 41.3067 265.04 40.8467 265.04 40.3C265.04 39.6733 265.213 39.1333 265.56 38.68C265.92 38.2267 266.38 37.8733 266.94 37.62C267.513 37.3667 268.133 37.24 268.8 37.24C269.187 37.24 269.593 37.2933 270.02 37.4C270.447 37.4933 270.86 37.6467 271.26 37.86C271.66 38.0733 272.007 38.3533 272.3 38.7C272.433 38.8733 272.507 39.08 272.52 39.32C272.547 39.56 272.44 39.7733 272.2 39.96C272.04 40.0933 271.847 40.1533 271.62 40.14C271.393 40.1267 271.207 40.0533 271.06 39.92C270.807 39.6 270.48 39.3533 270.08 39.18C269.68 38.9933 269.227 38.9 268.72 38.9C268.467 38.9 268.2 38.94 267.92 39.02C267.653 39.0867 267.427 39.2133 267.24 39.4C267.053 39.5867 266.96 39.86 266.96 40.22C266.96 40.5533 267.067 40.82 267.28 41.02C267.507 41.22 267.8 41.3867 268.16 41.52C268.52 41.6533 268.913 41.7733 269.34 41.88C269.753 41.9867 270.16 42.1133 270.56 42.26C270.973 42.4067 271.34 42.6 271.66 42.84C271.993 43.0667 272.26 43.3667 272.46 43.74C272.673 44.1 272.78 44.56 272.78 45.12C272.78 45.7733 272.587 46.3333 272.2 46.8C271.827 47.2533 271.347 47.6 270.76 47.84C270.187 48.08 269.58 48.2 268.94 48.2C268.18 48.2 267.42 48.0667 266.66 47.8C265.913 47.52 265.28 47.04 264.76 46.36Z" fill="#6D6D6D"/>
<path d="M275.691 47.98C275.357 47.98 275.097 47.8867 274.911 47.7C274.737 47.5133 274.651 47.2533 274.651 46.92V46.56C274.651 46.2267 274.737 45.9667 274.911 45.78C275.097 45.5933 275.357 45.5 275.691 45.5H275.911C276.244 45.5 276.497 45.5933 276.671 45.78C276.844 45.9667 276.931 46.2267 276.931 46.56V46.92C276.931 47.2533 276.844 47.5133 276.671 47.7C276.497 47.8867 276.244 47.98 275.911 47.98H275.691Z" fill="#6D6D6D"/>
<path d="M280.202 47.98C279.869 47.98 279.609 47.8867 279.422 47.7C279.249 47.5133 279.162 47.2533 279.162 46.92V46.56C279.162 46.2267 279.249 45.9667 279.422 45.78C279.609 45.5933 279.869 45.5 280.202 45.5H280.422C280.756 45.5 281.009 45.5933 281.182 45.78C281.356 45.9667 281.442 46.2267 281.442 46.56V46.92C281.442 47.2533 281.356 47.5133 281.182 47.7C281.009 47.8867 280.756 47.98 280.422 47.98H280.202Z" fill="#6D6D6D"/>
<path d="M284.714 47.98C284.381 47.98 284.121 47.8867 283.934 47.7C283.761 47.5133 283.674 47.2533 283.674 46.92V46.56C283.674 46.2267 283.761 45.9667 283.934 45.78C284.121 45.5933 284.381 45.5 284.714 45.5H284.934C285.267 45.5 285.521 45.5933 285.694 45.78C285.867 45.9667 285.954 46.2267 285.954 46.56V46.92C285.954 47.2533 285.867 47.5133 285.694 47.7C285.521 47.8867 285.267 47.98 284.934 47.98H284.714Z" fill="#6D6D6D"/>
<path d="M230.299 73.2C229.193 73.2 228.233 72.9733 227.419 72.52C226.606 72.0533 225.973 71.42 225.519 70.62C225.079 69.8067 224.859 68.88 224.859 67.84C224.859 66.6667 225.093 65.6667 225.559 64.84C226.039 64 226.659 63.36 227.419 62.92C228.179 62.4667 228.986 62.24 229.839 62.24C230.493 62.24 231.113 62.3733 231.699 62.64C232.286 62.8933 232.806 63.2533 233.259 63.72C233.726 64.1733 234.093 64.7133 234.359 65.34C234.626 65.9533 234.766 66.6267 234.779 67.36C234.766 67.6267 234.659 67.8467 234.459 68.02C234.259 68.1933 234.026 68.28 233.759 68.28H225.979L225.499 66.58H233.019L232.639 66.94V66.44C232.613 65.9733 232.459 65.5667 232.179 65.22C231.899 64.86 231.553 64.5867 231.139 64.4C230.726 64.2 230.293 64.1 229.839 64.1C229.439 64.1 229.053 64.1667 228.679 64.3C228.319 64.42 227.993 64.62 227.699 64.9C227.419 65.18 227.193 65.5533 227.019 66.02C226.859 66.4733 226.779 67.04 226.779 67.72C226.779 68.4533 226.933 69.0933 227.239 69.64C227.546 70.1867 227.959 70.6133 228.479 70.92C228.999 71.2133 229.573 71.36 230.199 71.36C230.693 71.36 231.099 71.3133 231.419 71.22C231.739 71.1133 232.006 70.9867 232.219 70.84C232.433 70.6933 232.619 70.5533 232.779 70.42C232.979 70.3 233.179 70.24 233.379 70.24C233.619 70.24 233.819 70.3267 233.979 70.5C234.139 70.66 234.219 70.8533 234.219 71.08C234.219 71.3733 234.073 71.64 233.779 71.88C233.419 72.2267 232.919 72.5333 232.279 72.8C231.653 73.0667 230.993 73.2 230.299 73.2Z" fill="#6D6D6D"/>
<path d="M238.04 73C237.747 73 237.507 72.9067 237.32 72.72C237.133 72.52 237.04 72.2733 237.04 71.98V63.5C237.04 63.2067 237.133 62.9667 237.32 62.78C237.507 62.58 237.747 62.48 238.04 62.48C238.32 62.48 238.553 62.58 238.74 62.78C238.94 62.9667 239.04 63.2067 239.04 63.5V65.74L238.84 64.88C238.947 64.5067 239.107 64.16 239.32 63.84C239.547 63.52 239.813 63.24 240.12 63C240.427 62.76 240.767 62.5733 241.14 62.44C241.527 62.3067 241.927 62.24 242.34 62.24C242.687 62.24 242.987 62.3333 243.24 62.52C243.493 62.7067 243.62 62.94 243.62 63.22C243.62 63.58 243.527 63.8467 243.34 64.02C243.153 64.18 242.947 64.26 242.72 64.26C242.52 64.26 242.327 64.22 242.14 64.14C241.953 64.0467 241.733 64 241.48 64C241.2 64 240.913 64.0733 240.62 64.22C240.327 64.3667 240.06 64.5867 239.82 64.88C239.58 65.16 239.387 65.4933 239.24 65.88C239.107 66.2667 239.04 66.7 239.04 67.18V71.98C239.04 72.2733 238.94 72.52 238.74 72.72C238.553 72.9067 238.32 73 238.04 73Z" fill="#6D6D6D"/>
<path d="M246.399 73C246.106 73 245.866 72.9067 245.679 72.72C245.493 72.52 245.399 72.2733 245.399 71.98V63.5C245.399 63.2067 245.493 62.9667 245.679 62.78C245.866 62.58 246.106 62.48 246.399 62.48C246.679 62.48 246.913 62.58 247.099 62.78C247.299 62.9667 247.399 63.2067 247.399 63.5V65.74L247.199 64.88C247.306 64.5067 247.466 64.16 247.679 63.84C247.906 63.52 248.173 63.24 248.479 63C248.786 62.76 249.126 62.5733 249.499 62.44C249.886 62.3067 250.286 62.24 250.699 62.24C251.046 62.24 251.346 62.3333 251.599 62.52C251.853 62.7067 251.979 62.94 251.979 63.22C251.979 63.58 251.886 63.8467 251.699 64.02C251.513 64.18 251.306 64.26 251.079 64.26C250.879 64.26 250.686 64.22 250.499 64.14C250.313 64.0467 250.093 64 249.839 64C249.559 64 249.273 64.0733 248.979 64.22C248.686 64.3667 248.419 64.5867 248.179 64.88C247.939 65.16 247.746 65.4933 247.599 65.88C247.466 66.2667 247.399 66.7 247.399 67.18V71.98C247.399 72.2733 247.299 72.52 247.099 72.72C246.913 72.9067 246.679 73 246.399 73Z" fill="#6D6D6D"/>
<path d="M263.839 67.74C263.839 68.8067 263.605 69.7533 263.139 70.58C262.672 71.3933 262.039 72.0333 261.239 72.5C260.439 72.9667 259.539 73.2 258.539 73.2C257.539 73.2 256.639 72.9667 255.839 72.5C255.039 72.0333 254.399 71.3933 253.919 70.58C253.452 69.7533 253.219 68.8067 253.219 67.74C253.219 66.66 253.452 65.7133 253.919 64.9C254.399 64.0733 255.039 63.4267 255.839 62.96C256.639 62.48 257.539 62.24 258.539 62.24C259.539 62.24 260.439 62.48 261.239 62.96C262.039 63.4267 262.672 64.0733 263.139 64.9C263.605 65.7133 263.839 66.66 263.839 67.74ZM261.839 67.74C261.839 67.0067 261.692 66.3733 261.399 65.84C261.105 65.2933 260.705 64.8667 260.199 64.56C259.705 64.24 259.152 64.08 258.539 64.08C257.925 64.08 257.365 64.24 256.859 64.56C256.352 64.8667 255.952 65.2933 255.659 65.84C255.365 66.3733 255.219 67.0067 255.219 67.74C255.219 68.4467 255.365 69.0733 255.659 69.62C255.952 70.1667 256.352 70.5933 256.859 70.9C257.365 71.2067 257.925 71.36 258.539 71.36C259.152 71.36 259.705 71.2067 260.199 70.9C260.705 70.5933 261.105 70.1667 261.399 69.62C261.692 69.0733 261.839 68.4467 261.839 67.74Z" fill="#6D6D6D"/>
<path d="M267.103 73C266.809 73 266.569 72.9067 266.382 72.72C266.196 72.52 266.103 72.2733 266.103 71.98V63.5C266.103 63.2067 266.196 62.9667 266.382 62.78C266.569 62.58 266.809 62.48 267.103 62.48C267.382 62.48 267.616 62.58 267.802 62.78C268.002 62.9667 268.103 63.2067 268.103 63.5V65.74L267.903 64.88C268.009 64.5067 268.169 64.16 268.382 63.84C268.609 63.52 268.876 63.24 269.182 63C269.489 62.76 269.829 62.5733 270.202 62.44C270.589 62.3067 270.989 62.24 271.403 62.24C271.749 62.24 272.049 62.3333 272.303 62.52C272.556 62.7067 272.682 62.94 272.682 63.22C272.682 63.58 272.589 63.8467 272.403 64.02C272.216 64.18 272.009 64.26 271.783 64.26C271.583 64.26 271.389 64.22 271.202 64.14C271.016 64.0467 270.796 64 270.542 64C270.263 64 269.976 64.0733 269.682 64.22C269.389 64.3667 269.123 64.5867 268.882 64.88C268.642 65.16 268.449 65.4933 268.302 65.88C268.169 66.2667 268.103 66.7 268.103 67.18V71.98C268.103 72.2733 268.002 72.52 267.802 72.72C267.616 72.9067 267.382 73 267.103 73Z" fill="#6D6D6D"/>
<defs>
<linearGradient id="paint0_linear_6654_97904" x1="198.5" y1="242" x2="198.5" y2="336" gradientUnits="userSpaceOnUse">
<stop stop-color="#D9D9D9"/>
<stop offset="1" stop-color="#F2F2F2" stop-opacity="0"/>
</linearGradient>
<clipPath id="clip0_6654_97904">
<rect width="42.3473" height="42.3473" fill="white" transform="translate(272.1 150.86) rotate(19.2039)"/>
</clipPath>
<clipPath id="clip1_6654_97904">
<rect width="42.3473" height="42.3473" fill="white" transform="translate(318.297 166.951) rotate(19.2039)"/>
</clipPath>
</defs>
</svg>
