<svg width="3" height="12" viewBox="0 0 3 12" fill="none" xmlns="http://www.w3.org/2000/svg">
<path d="M2.5588 0.999122C2.55915 0.972374 2.54877 0.946599 2.52998 0.92756C2.51119 0.90852 2.48556 0.897803 2.45881 0.897803H1.20312C1.17637 0.897803 1.15074 0.90852 1.13195 0.92756C1.11316 0.946599 1.10278 0.972374 1.10313 0.999122L1.19546 7.99912C1.19618 8.05383 1.24074 8.0978 1.29545 8.0978H2.36648C2.42119 8.0978 2.46575 8.05383 2.46647 7.99912L2.5588 0.999122ZM2.2979 11.2371L2.29851 11.2368L2.54652 10.8467L2.6319 10.8988C2.63205 10.8985 2.63221 10.8982 2.63237 10.898C2.71876 10.756 2.76193 10.5997 2.76193 10.4312C2.76193 10.1766 2.66957 9.9558 2.48797 9.7742C2.30637 9.59261 2.08561 9.50024 1.83097 9.50024C1.57632 9.50024 1.35556 9.59261 1.17396 9.7742C0.992365 9.9558 0.9 10.1766 0.9 10.4312C0.9 10.6859 0.992365 10.9066 1.17396 11.0882C1.35556 11.2698 1.57632 11.3622 1.83097 11.3622C2.00162 11.3622 2.15813 11.321 2.2979 11.2371Z" fill="#EF2828" stroke="#EF2828" stroke-width="0.2" stroke-linejoin="round"/>
</svg>
