<svg width="25" height="24" viewBox="0 0 25 24" fill="none" xmlns="http://www.w3.org/2000/svg">
<g id="State=Inactive">
<g id="Home">
<path id="Home_2" d="M9.88427 20.7714V17.7047C9.88425 16.9246 10.5202 16.2908 11.3081 16.2856H14.1941C14.9858 16.2856 15.6276 16.9209 15.6276 17.7047V17.7047V20.7809C15.6274 21.4432 16.1613 21.9845 16.8301 22H18.7541C20.6722 22 22.2271 20.4607 22.2271 18.5618V18.5618V9.83784C22.2168 9.09083 21.8625 8.38935 21.265 7.93303L14.6848 2.6853C13.532 1.77157 11.8933 1.77157 10.7405 2.6853L4.18908 7.94256C3.58931 8.39702 3.23444 9.09967 3.22705 9.84736V18.5618C3.22705 20.4607 4.78193 22 6.69996 22H8.62401C9.30941 22 9.86503 21.4499 9.86503 20.7714V20.7714" stroke="#AFB0B8" stroke-width="1.5" stroke-linecap="round" stroke-linejoin="round"/>
</g>
</g>
</svg>
